<?xml version="1.0" encoding="UTF-8" standalone="no"?>
<!-- Creator: CorelDRAW -->
<svg
   xmlns:dc="http://purl.org/dc/elements/1.1/"
   xmlns:cc="http://web.resource.org/cc/"
   xmlns:rdf="http://www.w3.org/1999/02/22-rdf-syntax-ns#"
   xmlns:svg="http://www.w3.org/2000/svg"
   xmlns="http://www.w3.org/2000/svg"
   xmlns:sodipodi="http://sodipodi.sourceforge.net/DTD/sodipodi-0.dtd"
   xmlns:inkscape="http://www.inkscape.org/namespaces/inkscape"
   xml:space="preserve"
   width="210mm"
   height="297mm"
   style="shape-rendering:geometricPrecision; text-rendering:geometricPrecision; image-rendering:optimizeQuality; fill-rule:evenodd; clip-rule:evenodd"
   viewBox="0 0 210 297"
   id="svg2329"
   sodipodi:version="0.32"
   inkscape:version="0.45.1"
   sodipodi:docname="autism.svg"
   inkscape:output_extension="org.inkscape.output.svg.inkscape"
   sodipodi:docbase="F:\Documents and Settings\Topgun\My Documents\My Pictures\wiki\cysts"><metadata
   id="metadata2460"><rdf:RDF><cc:Work
       rdf:about=""><dc:format>image/svg+xml</dc:format><dc:type
         rdf:resource="http://purl.org/dc/dcmitype/StillImage" /></cc:Work></rdf:RDF></metadata><sodipodi:namedview
   inkscape:window-height="904"
   inkscape:window-width="1280"
   inkscape:pageshadow="2"
   inkscape:pageopacity="0.0"
   guidetolerance="10.0"
   gridtolerance="10.0"
   objecttolerance="10.0"
   borderopacity="1.0"
   bordercolor="#666666"
   pagecolor="#ffffff"
   id="base"
   inkscape:zoom="0.35824168"
   inkscape:cx="372.04724"
   inkscape:cy="526.18109"
   inkscape:window-x="-4"
   inkscape:window-y="-4"
   inkscape:current-layer="svg2329" />
 <defs
   id="defs2331">
  <style
   type="text/css"
   id="style2333">
   
    .fil26 {fill:#0010CE}
    .fil16 {fill:#0010D6}
    .fil13 {fill:#0010DE}
    .fil7 {fill:#0019CE}
    .fil19 {fill:#0019D6}
    .fil8 {fill:#0819C5}
    .fil25 {fill:#089CB5}
    .fil14 {fill:#089CBD}
    .fil10 {fill:#08A5BD}
    .fil20 {fill:#0C2319}
    .fil15 {fill:#0F2321}
    .fil6 {fill:#109CAD}
    .fil5 {fill:#1694AD}
    .fil23 {fill:#1A2106}
    .fil27 {fill:#1D3A25}
    .fil18 {fill:#314208}
    .fil11 {fill:#343929}
    .fil24 {fill:#D61908}
    .fil4 {fill:#DAD240}
    .fil9 {fill:#DE1910}
    .fil21 {fill:#E61400}
    .fil22 {fill:#EF1000}
    .fil17 {fill:#EF1008}
    .fil1 {fill:#EF1900}
    .fil2 {fill:#EFEF21}
    .fil3 {fill:#EFEF29}
    .fil12 {fill:#F7EF19}
    .fil0 {fill:#FFFFF7}
   
  </style>
 </defs>
 <g
   id="Layer_x0020_1"
   transform="matrix(2.2910241,0,0,1.9138699,-111.42296,-78.324744)">
  <metadata
   id="CorelCorpID_0Corel-Layer" />
  <g
   id="_59267000">
   <polygon
   id="_57637712"
   class="fil0"
   points="96.5295,51.852 96.5428,51.5719 96.2626,51.5586 96.2493,51.8387 96.5295,51.852 "
   style="fill:#fffff7" />
   <polygon
   id="_34384528"
   class="fil0"
   points="94.1814,53.9869 94.1947,53.7067 93.9145,53.6934 93.9012,53.9736 94.1814,53.9869 "
   style="fill:#fffff7" />
   <path
   id="_58159016"
   class="fil1"
   d="M 98.6643,54.2002 L 98.9179,54.7738 C 98.5552,55.2634 98.3341,55.2398 98.3042,55.8679 L 98.2909,56.1481 C 98.2478,57.0538 99.2413,57.5974 100.1855,57.6423 L 101.026,57.6823 C 103.823,57.8154 102.321,55.3684 104.2973,54.1452 L 104.8284,54.4934 C 106.4738,53.9035 107.574,55.8079 107.4836,57.7087 C 107.4334,58.7639 107.274,58.2297 107.1235,59.3765 L 107.0835,60.217 L 107.235,60.5363 L 109.3649,59.4831 L 111.6063,59.5898 C 112.2228,59.7862 112.4438,59.6952 112.4069,60.4703 L 112.3936,60.7505 C 112.3359,61.9623 111.7795,61.853 111.7399,62.6851 C 111.7067,63.3843 113.439,64.8418 113.977,66.0124 C 114.7104,67.6076 114.9752,68.7004 115.5961,70.1697 L 116.7035,70.5033 L 117.5574,70.263 C 116.418,67.567 116.5238,64.8349 114.6233,62.2081 C 113.031,60.0075 111.4931,57.8942 110.4054,55.3203 C 108.2496,54.045 108.3942,52.6346 105.2307,51.981 C 102.7088,51.4601 100.5185,52.2659 98.7043,53.3596 L 98.6643,54.2002 L 98.6643,54.2002 z "
   style="fill:#ef1900" />
   <polygon
   id="_58307272"
   class="fil0"
   points="89.5919,56.0151 89.6052,55.7349 89.325,55.7216 89.3117,56.0018 89.5919,56.0151 "
   style="fill:#fffff7" />
   <path
   id="_58307560"
   class="fil2"
   d="M 104.828,54.4934 C 103.57,54.766 103.0224,57.5824 102.6534,58.883 L 104.627,58.9145 L 107.1231,59.3765 C 107.2736,58.2297 107.433,58.7639 107.4832,57.7087 C 107.5736,55.8079 106.4734,53.9035 104.828,54.4934 L 104.828,54.4934 z "
   style="fill:#efef21" />
   <polygon
   id="_58305960"
   class="fil0"
   points="89.4853,58.2565 89.4986,57.9763 89.2184,57.963 89.2051,58.2432 89.4853,58.2565 "
   style="fill:#fffff7" />
   <polygon
   id="_58450336"
   class="fil3"
   points="109.365,59.4831 108.908,60.4311 111.139,62.9342 111.606,59.5898 109.365,59.4831 "
   style="fill:#efef29" />
   <polygon
   id="_58450448"
   class="fil0"
   points="84.909,60.0045 84.9223,59.7244 84.6421,59.7111 84.6288,59.9912 84.909,60.0045 "
   style="fill:#fffff7" />
   <polygon
   id="_58687896"
   class="fil0"
   points="89.392,60.2178 89.4053,59.9377 89.1251,59.9243 89.1118,60.2045 89.392,60.2178 "
   style="fill:#fffff7" />
   <path
   id="_58449944"
   class="fil4"
   d="M 100.479,51.4783 L 99.6252,51.7185 L 99.3316,51.9853 L 98.4778,52.2255 L 98.1843,52.4924 L 97.6105,52.7459 L 96.7567,52.9861 L 96.4498,53.5331 L 96.1563,53.8 L 95.5826,54.0536 L 95.2891,54.3204 L 94.7155,54.5739 L 94.6888,55.1343 L 94.1284,55.1076 L 94.1017,55.668 L 93.5413,55.6413 L 93.5147,56.2017 L 92.9544,56.175 L 92.9277,56.7354 L 92.8877,57.576 C 91.6051,59.3073 91.954,59.4948 91.8206,62.2991 L 91.7939,62.8594 L 98.8516,58.7336 L 98.9984,58.9899 C 98.5079,58.5208 97.1058,57.4537 97.1438,56.6552 C 97.1934,55.6121 98.0487,54.6079 98.6646,54.2002 L 98.7046,53.3596 C 100.5188,52.2659 102.7091,51.4601 105.231,51.981 C 108.3945,52.6346 108.2499,54.045 110.4057,55.3203 L 110.4323,54.76 L 109.872,54.7334 L 109.8987,54.173 L 109.3516,53.8661 L 109.0847,53.5726 L 108.8312,52.9989 L 108.2842,52.6921 L 108.0173,52.3985 L 107.7504,52.1051 L 107.4703,52.0917 L 107.1901,52.0784 L 106.9232,51.7849 L 105.2555,51.4247 L 101.0528,51.2248 L 100.479,51.4783 L 100.479,51.4783 z "
   style="fill:#dad240" />
   <polygon
   id="_58304136"
   class="fil0"
   points="84.8023,62.246 84.8157,61.9658 84.5355,61.9525 84.5221,62.2327 84.8023,62.246 "
   style="fill:#fffff7" />
   <polygon
   id="_58307944"
   class="fil0"
   points="118.424,63.8456 118.438,63.5654 118.158,63.552 118.144,63.8322 118.424,63.8456 "
   style="fill:#fffff7" />
   <polygon
   id="_58306056"
   class="fil0"
   points="84.6957,64.4875 84.709,64.2073 84.4288,64.194 84.4155,64.4742 84.6957,64.4875 "
   style="fill:#fffff7" />
   <path
   id="_58306152"
   class="fil5"
   d="M 88.6316,64.3939 C 89.0882,64.7445 89.1901,64.4607 89.152,65.2611 L 89.112,66.1017 L 89.5513,65.9945 L 90.5395,65.6079 L 90.8197,65.6213 L 91.1266,65.0743 L 91.1399,64.7941 L 91.7536,63.7 L 91.7936,62.8594 L 91.8203,62.2991 L 91.3542,60.603 L 88.6716,63.5534 L 88.6316,64.3939 z "
   style="fill:#1694ad" />
   <polygon
   id="_59161168"
   class="fil0"
   points="84.5891,66.7289 84.6024,66.4487 84.3222,66.4354 84.3089,66.7156 84.5891,66.7289 "
   style="fill:#fffff7" />
   <polygon
   id="_59326232"
   class="fil0"
   points="91.3135,67.0488 91.3268,66.7686 91.0466,66.7553 91.0333,67.0355 91.3135,67.0488 "
   style="fill:#fffff7" />
   <polygon
   id="_58306344"
   class="fil0"
   points="113.728,68.1152 113.741,67.835 113.461,67.8216 113.448,68.1019 113.728,68.1152 "
   style="fill:#fffff7" />
   <polygon
   id="_59484056"
   class="fil0"
   points="84.4824,68.9704 84.4958,68.6902 84.2156,68.6768 84.2022,68.9571 84.4824,68.9704 "
   style="fill:#fffff7" />
   <polygon
   id="_59674736"
   class="fil0"
   points="113.622,70.3566 113.635,70.0764 113.355,70.0631 113.341,70.3433 113.622,70.3566 "
   style="fill:#fffff7" />
   <path
   id="_59496840"
   class="fil6"
   d="M 88.6316,64.3939 C 87.8043,65.259 86.766,68.1917 86.6839,69.9175 L 86.6706,70.1977 C 86.6399,70.8434 86.8256,71.0476 87.4712,71.0783 L 88.3117,71.1183 L 88.5474,70.0075 L 88.6316,64.3939 z "
   style="fill:#109cad" />
   <polygon
   id="_59483960"
   class="fil0"
   points="113.515,72.5981 113.528,72.318 113.248,72.3046 113.235,72.5847 113.515,72.5981 "
   style="fill:#fffff7" />
   <polygon
   id="_59496896"
   class="fil0"
   points="84.2692,73.4534 84.2825,73.1732 84.0023,73.1598 83.989,73.44 84.2692,73.4534 "
   style="fill:#fffff7" />
   <path
   id="_58724584"
   class="fil7"
   d="M 90.0064,76.8152 L 90.0597,75.6945 L 89.8196,74.8407 L 89.5393,74.8273 L 89.4994,75.6679 L 89.2215,75.7307 L 88.5519,71.9722 C 87.1827,71.907 86.0691,71.037 86.0036,72.4125 L 85.9236,74.0937 C 85.8539,75.5603 87.5964,76.7006 89.4068,76.7791 L 89.7262,75.9671 L 90.0064,76.8152 L 90.0064,76.8152 z "
   style="fill:#0019ce" />
   <polygon
   id="_58308904"
   class="fil0"
   points="111.06,76.9744 111.074,76.6942 110.793,76.6809 110.78,76.9611 111.06,76.9744 "
   style="fill:#fffff7" />
   <path
   id="_58724528"
   class="fil2"
   d="M 116.704,70.5033 L 115.5966,70.1697 C 115.3731,70.5476 114.6848,71.6272 114.6627,72.0911 C 114.5997,73.4164 116.272,73.6815 116.2372,74.4125 C 116.1891,75.4242 114.1461,76.4684 113.0485,76.5073 C 113.1035,78.0548 116.4121,78.3523 118.0119,78.4284 L 118.1052,76.467 C 118.2028,74.4153 117.3575,71.8946 116.704,70.5033 z "
   style="fill:#efef21" />
   <polygon
   id="_58637512"
   class="fil0"
   points="81.8145,77.8296 81.8278,77.5494 81.5476,77.5361 81.5343,77.8163 81.8145,77.8296 "
   style="fill:#fffff7" />
   <polygon
   id="_58637224"
   class="fil0"
   points="110.954,79.2159 110.967,78.9357 110.687,78.9223 110.673,79.2025 110.954,79.2159 "
   style="fill:#fffff7" />
   <polygon
   id="_59520336"
   class="fil0"
   points="81.7078,80.0711 81.7212,79.7909 81.441,79.7775 81.4276,80.0577 81.7078,80.0711 "
   style="fill:#fffff7" />
   <polygon
   id="_58965696"
   class="fil0"
   points="79.3597,82.2059 79.3731,81.9258 79.0929,81.9124 79.0795,82.1925 79.3597,82.2059 "
   style="fill:#fffff7" />
   <polygon
   id="_59496464"
   class="fil0"
   points="92.8085,82.8457 92.8218,82.5656 92.5416,82.5522 92.5283,82.8323 92.8085,82.8457 "
   style="fill:#fffff7" />
   <polygon
   id="_58712760"
   class="fil0"
   points="95.0499,82.9523 95.0633,82.6722 94.7831,82.6589 94.7697,82.939 95.0499,82.9523 "
   style="fill:#fffff7" />
   <polygon
   id="_59497344"
   class="fil0"
   points="108.499,83.5921 108.512,83.312 108.232,83.2987 108.219,83.5788 108.499,83.5921 "
   style="fill:#fffff7" />
   <path
   id="_59144176"
   class="fil8"
   d="M 91.888,84.4868 L 91.928,83.6463 L 91.7011,82.5122 L 91.4476,81.9385 L 91.194,81.3648 L 90.9539,80.5109 L 90.6737,80.4976 C 89.4994,80.1234 90.2102,79.914 89.2994,79.8706 L 87.3381,79.7773 C 87.1618,80.3987 87.0273,80.4081 86.9913,81.1648 L 86.898,83.1262 C 88.2742,83.1916 90.4154,83.4263 90.7673,84.4335 L 91.888,84.4868 L 91.888,84.4868 z "
   style="fill:#0819c5" />
   <polygon
   id="_58723520"
   class="fil0"
   points="94.9433,85.1938 94.9566,84.9136 94.6764,84.9003 94.6631,85.1805 94.9433,85.1938 "
   style="fill:#fffff7" />
   <path
   id="_58723688"
   class="fil9"
   d="M 84.5494,73.4667 L 84.2425,74.0137 L 83.8957,75.4013 L 83.5756,76.2285 L 83.1754,78.7368 L 82.8819,79.0037 L 82.7086,82.646 L 82.6553,83.7667 L 82.522,86.5686 L 82.3354,90.4912 L 82.2154,93.0128 L 82.4423,94.1469 L 82.7225,94.1602 L 82.7891,92.7593 C 83.348,93.1733 83.4764,93.6344 84.15,93.6664 L 84.7104,93.6931 C 85.384,93.7251 85.5556,93.2783 86.1513,92.9192 C 87.6798,93.1199 89.1324,94.1843 89.4602,94.1999 L 89.7404,94.2132 C 90.3014,94.2399 95.9628,93.2784 95.9843,92.8253 C 96.0155,92.1702 95.4465,91.9662 95.2371,90.8241 L 95.2771,89.9836 L 95.0102,89.6901 L 94.7567,89.1163 L 94.4898,88.8229 L 94.2497,87.9689 L 93.9828,87.6755 L 93.7426,86.8216 L 93.1823,86.7949 C 92.4923,85.9946 90.2197,84.4075 88.806,84.3402 L 87.3382,84.2749 L 87.4053,90.1707 C 87.4149,90.6361 87.2605,90.6129 87.0718,91.2781 C 85.4841,90.7722 86.7992,90.1419 85.4441,90.0774 L 84.3233,90.0241 C 83.6497,89.992 83.4781,90.4389 82.8824,90.798 L 83.109,86.0349 L 82.8722,84.6047 L 83.2023,84.0736 L 83.4104,82.3565 L 83.5643,83.1006 L 86.3643,82.5391 L 86.5109,79.4571 C 86.5416,78.8115 86.7459,78.6259 87.3914,78.6566 C 88.5966,78.7139 88.8947,79.0555 89.8864,79.3369 C 89.9414,77.164 88.2883,76.7335 85.9348,76.661 L 85.163,72.3725 L 84.8829,72.3592 L 84.5494,73.4667 L 84.5494,73.4667 z "
   style="fill:#de1910" />
   <polygon
   id="_59484344"
   class="fil0"
   points="103.802,87.8618 103.816,87.5816 103.536,87.5683 103.522,87.8485 103.802,87.8618 "
   style="fill:#fffff7" />
   <polygon
   id="_58645296"
   class="fil2"
   points="83.109,86.0349 83.5403,89.0728 86.2138,89.8281 86.8447,84.2469 83.2023,84.0736 82.8722,84.6047 83.109,86.0349 "
   style="fill:#efef21" />
   <path
   id="_59497400"
   class="fil10"
   d="M 107.071,89.983 L 112.4078,89.9561 L 116.9337,90.1621 L 116.6906,88.475 L 117.8113,88.5283 C 118.4569,88.559 118.6611,88.3733 118.6918,87.7277 L 118.6752,87.0217 L 117.1276,86.245 L 117.0238,81.4703 L 117.1171,79.5091 L 113.7549,79.3492 C 113.0714,79.3166 110.791,83.5972 110.3304,84.4278 C 109.5776,85.785 107.3884,88.8642 107.071,89.983 L 107.071,89.983 z "
   style="fill:#08a5bd" />
   <polygon
   id="_59484992"
   class="fil0"
   points="79.0398,88.9303 79.0532,88.6501 78.773,88.6368 78.7596,88.917 79.0398,88.9303 "
   style="fill:#fffff7" />
   <path
   id="_59497176"
   class="fil11"
   d="M 88.6316,64.3939 L 88.5474,70.0075 L 88.3117,71.1183 L 87.4712,71.0783 C 86.8256,71.0476 86.6399,70.8434 86.6706,70.1977 L 86.6839,69.9175 C 86.766,68.1917 87.8043,65.259 88.6316,64.3939 z M 92.0469,57.536 L 91.7534,57.8028 L 91.4598,58.0696 L 91.153,58.6167 L 90.8461,59.1637 L 90.5527,59.4306 L 90.2458,59.9777 L 89.9523,60.2444 L 89.6454,60.7915 L 89.3386,61.3385 L 89.0451,61.6054 L 88.7382,62.1525 L 88.4314,62.6994 L 88.1245,63.2465 L 87.8177,63.7935 L 87.5109,64.3406 L 87.1907,65.1678 L 86.8705,65.995 L 86.5637,66.542 L 86.2036,68.2098 L 85.8567,69.5974 L 85.5099,70.985 L 85.203,71.532 L 85.163,72.3725 L 85.9348,76.661 C 88.2883,76.7335 89.9414,77.164 89.8864,79.3369 C 88.8947,79.0555 88.5966,78.7139 87.3914,78.6566 C 86.7459,78.6259 86.5416,78.8115 86.5109,79.4571 L 86.3643,82.5391 L 83.5643,83.1006 L 83.4104,82.3565 L 83.2023,84.0736 L 86.8447,84.2469 L 86.2138,89.8281 L 83.5403,89.0728 L 83.109,86.0349 L 82.8824,90.798 C 83.4781,90.4389 83.6497,89.992 84.3233,90.0241 L 85.4441,90.0774 C 86.7992,90.1419 85.4841,90.7722 87.0718,91.2781 C 87.2605,90.6129 87.4149,90.6361 87.4053,90.1707 L 87.3382,84.2749 L 88.806,84.3402 C 90.2197,84.4075 92.4923,85.9946 93.1823,86.7949 L 93.2223,85.9544 L 92.9554,85.6609 L 92.6885,85.3673 L 92.7019,85.0872 L 92.7152,84.807 L 92.1681,84.5001 L 91.888,84.4868 L 90.7673,84.4335 C 90.4154,83.4263 88.2742,83.1916 86.898,83.1262 L 86.9913,81.1648 C 87.0273,80.4081 87.1618,80.3987 87.3381,79.7773 L 89.2994,79.8706 C 90.2102,79.914 89.4994,80.1234 90.6737,80.4976 L 90.9672,80.2307 L 90.9805,79.9506 L 90.767,78.5364 L 90.7803,78.2562 L 90.7937,77.9759 L 90.2333,77.9493 L 90.2599,77.389 L 90.0064,76.8152 L 89.7262,75.9671 L 89.4068,76.7791 C 87.5964,76.7006 85.8539,75.5603 85.9236,74.0937 L 86.0036,72.4125 C 86.0691,71.037 87.1827,71.907 88.5519,71.9722 L 89.2215,75.7307 L 89.4994,75.6679 L 89.5393,74.8273 L 89.6327,72.866 L 89.4191,71.4518 L 89.5791,68.0896 L 89.9126,66.9822 L 90.2328,66.155 L 90.5262,65.8881 L 90.5395,65.6079 L 89.5513,65.9945 L 89.112,66.1017 L 89.152,65.2611 C 89.1901,64.4607 89.0882,64.7445 88.6316,64.3939 L 88.6716,63.5534 L 91.3542,60.603 L 91.8203,62.2991 C 91.9537,59.4948 91.6048,59.3073 92.8874,57.576 L 92.9274,56.7354 L 92.367,56.7087 L 92.0469,57.536 L 92.0469,57.536 z "
   style="fill:#343929" />
   <polygon
   id="_59483384"
   class="fil0"
   points="101.348,92.2381 101.361,91.9579 101.081,91.9445 101.068,92.2248 101.348,92.2381 "
   style="fill:#fffff7" />
   <polygon
   id="_58445744"
   class="fil0"
   points="78.8266,93.4132 78.8399,93.1331 78.5597,93.1197 78.5464,93.3999 78.8266,93.4132 "
   style="fill:#fffff7" />
   <polygon
   id="_59495832"
   class="fil0"
   points="98.8931,96.6144 98.9064,96.3342 98.6262,96.3209 98.6129,96.6011 98.8931,96.6144 "
   style="fill:#fffff7" />
   <path
   id="_58288752"
   class="fil12"
   d="M 82.9566,94.9648 L 84.3671,106.9406 L 88.5801,106.7948 L 88.7534,103.1524 C 88.8068,102.0304 89.5403,102.5121 90.4879,102.1117 C 91.0468,102.5257 91.1752,102.9868 91.8488,103.0189 L 92.9695,103.0722 C 93.6228,103.1033 94.406,102.3912 94.4371,101.7379 L 94.4637,101.1776 C 94.4948,100.5242 93.7828,99.7411 93.1295,99.71 L 92.0087,99.6567 C 91.1574,99.6162 91.0344,100.0974 90.8347,100.7241 L 89.9942,100.6841 C 89.2028,100.6465 88.9438,99.9898 88.7234,99.4942 L 88.593,94.7203 L 86.618,94.5155 L 82.9566,94.9648 z "
   style="fill:#f7ef19" />
   <path
   id="_59485304"
   class="fil13"
   d="M 100.134,100.043 L 98.0422,102.5484 L 98.3196,102.7649 L 102.2941,102.9468 L 102.0952,100.1363 C 101.9813,98.8617 103.213,97.943 104.4433,98.0015 L 104.7235,98.0149 C 105.5849,98.0558 107.2361,99.0773 107.3895,100.148 C 107.6976,102.2954 106.2574,103.3693 108.673,103.5382 L 108.833,100.176 C 108.8637,99.5304 109.0679,99.3448 109.7135,99.3755 L 110.554,99.4155 C 111.5846,99.4645 111.1646,100.287 112.1952,100.336 L 113.0357,100.376 C 113.897,100.417 114.1954,99.6085 114.2364,98.7482 L 114.263,98.1878 C 114.3064,97.2771 114.0304,97.9648 113.7694,96.7603 L 112.3684,96.6936 C 111.3951,96.6473 111.9142,97.2337 110.9408,97.1874 L 110.3805,97.1607 C 109.9645,97.1409 109.1732,96.4968 108.7837,96.2376 L 108.718,92.7099 L 110.0734,91.8106 L 110.1134,90.97 L 107.2175,90.9693 L 100.134,100.043 L 100.134,100.043 z "
   style="fill:#0010de" />
   <path
   id="_59485208"
   class="fil14"
   d="M 108.9,104.673 L 115.0641,104.9662 C 115.3357,101.0816 117.8841,98.8162 118.1323,93.5987 L 118.2113,91.9277 L 110.6473,91.5577 C 110.3263,92.1003 109.4158,93.8308 109.3799,94.5865 C 109.3277,95.6832 109.8015,94.6374 109.8603,96.2942 C 112.0922,96.4003 111.7676,95.5425 112.7021,95.5869 L 113.2625,95.6136 C 114.6178,95.6781 115.4618,96.6064 115.3974,97.9617 L 115.344,99.0824 C 115.2846,100.3318 114.0895,101.5501 112.9826,101.4974 C 110.7675,101.392 111.1873,100.4389 109.4065,100.2051 L 108.9,104.673 L 108.9,104.673 z "
   style="fill:#089cbd" />
   <path
   id="_59484416"
   class="fil15"
   d="M 100.134,100.043 L 98.7997,98.5755 L 98.7597,99.416 C 98.2003,100.1711 97.5929,100.3311 97.5324,101.6042 L 97.5057,102.1645 C 97.4568,103.1931 97.8754,103.5396 98.2529,104.1658 C 100.8973,104.2916 103.925,104.6291 104.2434,102.2042 C 103.5394,102.0045 102.8536,101.9034 102.8958,101.0168 L 102.9224,100.4565 C 102.9536,99.8007 103.4407,99.3579 104.0965,99.3891 L 104.9371,99.4291 C 105.5652,99.459 105.5416,99.6801 105.8281,100.0765 L 106.685,104.0053 L 107.8058,104.0586 L 108.6197,103.8242 L 108.8998,104.6723 L 109.4063,100.2044 C 111.1871,100.4382 110.7673,101.3913 112.9824,101.4967 C 114.0893,101.5494 115.2844,100.3311 115.3438,99.0817 L 115.3972,97.961 C 115.4616,96.6057 114.6176,95.6774 113.2623,95.6129 L 112.7019,95.5862 C 111.7674,95.5418 112.092,96.3996 109.8601,96.2935 C 109.8013,94.6367 109.3275,95.6825 109.3797,94.5858 C 109.4156,93.8301 110.3261,92.0996 110.6471,91.557 L 110.1134,90.97 L 110.0734,91.8106 L 108.718,92.7099 L 108.7837,96.2376 C 109.1732,96.4968 109.9645,97.1409 110.3805,97.1607 L 110.9408,97.1874 C 111.9142,97.2337 111.3951,96.6473 112.3684,96.6936 L 113.7694,96.7603 C 114.0304,97.9648 114.3064,97.2771 114.263,98.1878 L 114.2364,98.7482 C 114.1954,99.6085 113.897,100.417 113.0357,100.376 L 112.1952,100.336 C 111.1646,100.287 111.5846,99.4645 110.554,99.4155 L 109.7135,99.3755 C 109.0679,99.3448 108.8637,99.5304 108.833,100.176 L 108.673,103.5382 C 106.2574,103.3693 107.6976,102.2954 107.3895,100.148 C 107.2361,99.0773 105.5849,98.0558 104.7235,98.0149 L 104.4433,98.0015 C 103.213,97.943 101.9813,98.8617 102.0952,100.1363 L 102.2941,102.9468 L 98.3196,102.7649 L 98.0422,102.5484 L 100.134,100.043 L 100.134,100.043 z "
   style="fill:#0f2321" />
   <path
   id="_59147688"
   class="fil11"
   d="M 107.071,89.983 C 107.3884,88.8642 109.5776,85.785 110.3304,84.4278 C 110.791,83.5972 113.0714,79.3166 113.7549,79.3492 L 117.1171,79.5091 L 117.0238,81.4703 L 117.1276,86.245 L 118.6752,87.0217 L 118.6918,87.7277 C 118.6611,88.3733 118.4569,88.559 117.8113,88.5283 L 116.6906,88.475 L 116.9337,90.1621 L 112.4078,89.9561 L 107.071,89.983 L 107.071,89.983 z M 98.6639,54.2002 C 98.048,54.6079 97.1927,55.6121 97.1431,56.6552 C 97.1051,57.4537 98.5072,58.5208 98.9977,58.9899 L 98.8509,58.7336 L 91.7932,62.8594 L 91.7532,63.7 L 91.1395,64.7941 L 91.4197,64.8074 L 91.7133,64.5405 L 92.0067,64.2736 L 92.3136,63.7267 L 92.6071,63.4598 L 92.9006,63.1929 L 93.1941,62.926 L 93.7678,62.6726 L 94.0613,62.4057 L 94.3549,62.1388 L 94.9285,61.8853 L 95.2221,61.6184 L 95.7957,61.365 L 96.0892,61.0981 L 96.663,60.8445 L 97.2366,60.591 L 97.8103,60.3375 L 98.9444,60.1107 L 99.2379,59.8438 L 100.372,59.6169 L 102.0664,59.4167 L 102.3466,59.43 L 105.4153,59.8568 L 106.5227,60.1903 L 106.7895,60.4839 L 107.0564,60.7774 L 108.1638,61.1108 L 108.4306,61.4044 L 108.991,61.431 L 108.9643,61.9914 L 109.5114,62.2982 L 109.7782,62.5917 L 110.3253,62.8986 L 110.5921,63.1921 L 110.8589,63.4857 L 111.1258,63.7791 L 111.3927,64.0726 L 111.6596,64.3662 L 111.9264,64.6597 L 112.1932,64.9532 L 112.4468,65.5269 L 112.7136,65.8204 L 112.9672,66.3941 L 113.234,66.6876 L 113.5008,66.9811 L 113.741,67.835 L 114.3015,67.8616 L 114.2615,68.7022 L 114.1548,70.9437 L 113.8213,72.0511 L 113.4745,73.4387 L 113.4345,74.2792 L 112.8741,74.2525 L 112.8607,74.5327 L 112.8208,75.3733 L 112.514,75.9203 L 112.1805,77.0277 L 111.8469,78.1351 L 111.5134,79.2425 L 111.2066,79.7896 L 110.8731,80.897 L 110.5796,81.1638 L 110.2594,81.991 L 109.9392,82.8182 L 109.6191,83.6454 L 109.3122,84.1925 L 108.9921,85.0197 L 108.6985,85.2866 L 108.3784,86.1138 L 108.0849,86.3806 L 107.7647,87.2078 L 107.4712,87.4747 L 107.1643,88.0218 L 106.8575,88.5688 L 106.5507,89.1158 L 106.2438,89.6628 L 105.6702,89.9164 L 105.6568,90.1966 L 105.6435,90.4768 L 105.35,90.7436 L 105.3233,91.304 L 104.7629,91.2773 L 104.4427,92.1045 L 104.1359,92.6516 L 103.8424,92.9184 L 103.5489,93.1852 L 103.2287,94.0125 L 102.9352,94.2794 L 102.6284,94.8264 L 102.3215,95.3734 L 102.028,95.6402 L 101.7211,96.1873 L 101.4277,96.4542 L 101.1208,97.0012 L 100.8273,97.268 L 100.5204,97.8151 L 100.2137,98.3621 L 99.9068,98.9092 L 99.6266,98.8959 L 99.3731,98.3221 L 99.1062,98.0286 L 98.8261,98.0153 L 98.7994,98.5757 L 100.1337,100.0432 L 107.2172,90.9695 L 110.1131,90.9702 L 110.6468,91.5572 L 118.2108,91.9272 L 118.1318,93.5982 C 117.8836,98.8157 115.3352,101.0811 115.0636,104.9657 L 108.8995,104.6725 L 108.6194,103.8244 L 107.8055,104.0588 L 108.2535,104.9307 L 108.4861,107.461 L 108.7156,108.852 L 109.2467,109.1821 C 109.3136,107.7745 108.9596,105.5178 110.2605,105.5797 L 114.4632,105.7797 C 114.5797,106.415 114.7128,106.4372 114.6768,107.1939 L 114.6501,107.7542 C 114.6141,108.511 114.4796,108.5204 114.3033,109.1418 L 114.8504,109.4487 L 115.1305,109.462 L 115.4373,108.9149 L 115.7709,107.8075 L 116.091,106.9804 L 116.4112,106.1532 L 116.7313,105.3259 L 117.0782,103.9383 L 117.4117,102.8309 L 117.7452,101.7235 L 118.0787,100.6161 L 118.4388,98.9483 L 118.5055,97.5475 L 119.0659,97.5741 L 119.0792,97.2939 L 119.1725,95.3326 L 119.1859,95.0525 L 119.2792,93.0912 L 119.2925,92.811 L 119.3058,92.5308 L 119.7057,84.1253 L 119.8123,81.8838 L 119.8257,81.6036 L 119.6254,79.9093 L 119.919,79.6424 L 119.9323,79.3622 L 119.3719,79.3355 L 119.4385,77.9346 L 119.265,75.6798 L 119.0515,74.2656 L 118.8379,72.8513 L 118.5977,71.9975 L 118.3975,70.303 L 118.1573,69.4492 L 118.1706,69.169 L 118.184,68.8888 L 117.9305,68.3151 L 117.677,67.7414 L 117.4501,66.6073 L 117.1965,66.0337 L 116.9431,65.46 L 116.7028,64.6061 L 116.4493,64.0324 L 116.1824,63.7389 L 116.1958,63.4587 L 116.2091,63.1785 L 115.9422,62.885 L 115.6888,62.3113 L 115.4352,61.7376 L 115.1683,61.4441 L 114.9148,60.8704 L 114.6613,60.2967 L 114.3945,60.0032 L 114.1543,59.1493 L 113.6072,58.8425 L 113.3404,58.549 L 113.0869,57.9753 L 112.82,57.6817 L 112.5531,57.3883 L 112.2996,56.8146 L 111.7526,56.5077 L 111.499,55.9341 L 110.9387,55.9074 L 110.9654,55.347 L 110.405,55.3203 C 111.4927,57.8942 113.0306,60.0075 114.6229,62.2081 C 116.5234,64.8349 116.4176,67.567 117.557,70.263 L 116.7031,70.5033 C 117.3566,71.8946 118.2019,74.4153 118.1043,76.467 L 118.011,78.4284 C 116.4112,78.3523 113.1026,78.0548 113.0476,76.5073 C 114.1452,76.4684 116.1882,75.4242 116.2363,74.4125 C 116.2711,73.6815 114.5988,73.4164 114.6618,72.0911 C 114.6839,71.6272 115.3722,70.5476 115.5957,70.1697 C 114.9748,68.7004 114.71,67.6076 113.9766,66.0124 C 113.4386,64.8418 111.7063,63.3843 111.7395,62.6851 C 111.7791,61.853 112.3355,61.9623 112.3932,60.7505 L 112.4065,60.4703 C 112.4434,59.6952 112.2224,59.7862 111.6059,59.5898 L 111.1385,62.9342 L 108.9071,60.4311 L 109.3645,59.4831 L 107.2346,60.5363 L 107.0831,60.217 L 107.1231,59.3765 L 104.627,58.9145 L 102.6534,58.883 C 103.0224,57.5824 103.57,54.766 104.828,54.4934 L 104.2969,54.1452 C 102.3206,55.3684 103.8226,57.8154 101.0256,57.6823 L 100.1851,57.6423 C 99.2409,57.5974 98.2474,57.0538 98.2905,56.1481 L 98.3038,55.8679 C 98.3337,55.2398 98.5548,55.2634 98.9175,54.7738 L 98.6639,54.2002 L 98.6639,54.2002 z "
   style="fill:#343929" />
   <path
   id="_59495944"
   class="fil16"
   d="M 109.247,109.182 L 110.3544,109.5155 L 110.381,108.9551 L 114.3036,109.1417 C 114.4799,108.5203 114.6144,108.5109 114.6504,107.7541 L 114.6771,107.1938 C 114.7131,106.4371 114.58,106.4149 114.4635,105.7796 L 110.2608,105.5796 C 108.9599,105.5177 109.3139,107.7744 109.247,109.182 L 109.247,109.182 z "
   style="fill:#0010d6" />
   <path
   id="_58445688"
   class="fil17"
   d="M 106.232,113.532 L 106.4988,113.8255 L 108.1266,115.0262 C 108.3789,114.1368 108.9206,112.2558 109.941,112.3044 L 110.2212,112.3177 C 111.1946,112.364 110.6221,112.8984 111.5954,112.9447 L 112.436,112.9847 C 113.0918,113.0159 113.5788,112.5732 113.61,111.9173 C 113.6357,111.3761 113.1638,110.7728 112.8228,110.7566 C 109.4667,110.5969 108.2733,111.9442 108.4865,107.4613 L 108.2539,104.931 L 107.8059,104.0591 L 106.6851,104.0058 L 105.8282,100.077 C 105.5417,99.6806 105.5653,99.4595 104.9372,99.4296 L 104.0966,99.3896 C 103.4408,99.3584 102.9537,99.8012 102.9225,100.457 L 102.8959,101.0173 C 102.8537,101.9039 103.5395,102.005 104.2435,102.2047 C 103.9251,104.6296 100.8974,104.2921 98.253,104.1663 C 97.8755,103.5401 97.4569,103.1936 97.5058,102.165 L 97.5325,101.6047 C 97.593,100.3316 98.2004,100.1716 98.7598,99.4165 L 98.7998,98.576 L 98.8265,98.0156 L 98.8531,97.4552 L 98.5996,96.8815 L 98.346,96.3079 L 98.0792,96.0143 L 97.839,95.1605 L 97.5722,94.8669 L 97.292,94.8536 L 96.2169,93.6424 L 89.4202,95.0407 L 89.3002,97.5624 C 89.2593,98.4227 89.4797,99.2558 90.3409,99.2968 C 91.6872,99.3609 91.8365,98.5255 93.1828,98.5896 L 93.7432,98.6162 C 94.5236,98.6534 95.6483,99.8904 95.6111,100.6708 L 95.5578,101.7915 C 95.5044,102.9149 93.7045,104.2307 92.3559,104.1665 C 91.0575,104.1048 91.5379,103.6035 89.8609,103.4863 L 89.7942,104.8872 C 89.7236,106.3718 90.3652,107.1452 91.9147,107.2483 C 94.9594,107.4509 93.8396,107.703 95.8116,108.2624 C 95.65,109.4931 95.1929,109.4616 95.1579,110.1971 C 95.117,111.0573 95.3374,111.8904 96.1987,111.9314 L 96.7591,111.9581 C 97.3405,111.9857 98.199,111.2051 98.2133,110.904 C 98.2593,109.9381 98.0576,109.8092 98.0264,108.9294 C 98.5128,108.2728 98.9006,107.8478 100.041,107.902 L 101.1617,107.9553 C 105.331,108.1537 104.4007,110.4124 104.8962,112.8104 L 106.232,113.532 L 106.232,113.532 z "
   style="fill:#ef1008" />
   <path
   id="_59496224"
   class="fil6"
   d="M 85.1513,108.036 L 85.0713,109.7171 C 85.0202,110.7927 86.1311,111.1466 87.2461,111.2246 C 87.3608,110.3517 87.5737,110.2426 87.6196,109.2767 L 87.6463,108.7163 C 87.677,108.0707 87.4913,107.8665 86.8458,107.8358 L 86.5656,107.8224 C 86.1241,107.8014 85.4968,107.9204 85.1513,108.036 L 85.1513,108.036 z "
   style="fill:#109cad" />
   <path
   id="_58724024"
   class="fil18"
   d="M 86.8458,107.836 C 87.4913,107.8667 87.677,108.0709 87.6463,108.7165 L 87.6196,109.2769 C 87.5737,110.2428 87.3608,110.3519 87.2461,111.2248 C 86.1311,111.1468 85.0202,110.7929 85.0713,109.7173 L 85.1513,108.0362 C 85.4968,107.9206 86.1241,107.8016 86.5656,107.8226 L 86.8458,107.836 L 86.8458,107.836 z M 91.8488,103.0193 C 91.1752,102.9872 91.0468,102.5261 90.4879,102.1121 C 89.5403,102.5125 88.8068,102.0308 88.7534,103.1528 L 88.5801,106.7952 L 84.3671,106.941 L 82.9566,94.9652 L 86.618,94.5159 L 88.593,94.7207 L 88.7234,99.4946 C 88.9438,99.9902 89.2028,100.6469 89.9942,100.6845 L 90.8347,100.7245 C 91.0344,100.0978 91.1574,99.6166 92.0087,99.6571 L 93.1295,99.7104 C 93.7828,99.7415 94.4948,100.5246 94.4637,101.178 L 94.4371,101.7383 C 94.406,102.3916 93.6228,103.1037 92.9695,103.0726 L 91.8488,103.0193 L 91.8488,103.0193 z M 82.7225,94.1606 L 82.5359,98.0832 L 82.7094,100.3379 L 82.8963,102.3125 L 83.1231,103.4466 L 83.3234,105.141 L 83.5502,106.2751 L 83.7771,107.4091 L 84.0039,108.5432 L 84.2441,109.3971 L 84.2308,109.6773 L 84.2175,109.9574 L 84.4844,110.251 L 84.4577,110.8114 L 84.4444,111.0915 L 84.6978,111.6652 L 84.9647,111.9587 L 85.1516,113.9333 L 85.7119,113.96 L 85.6719,114.8005 L 86.2323,114.8272 L 86.259,114.2668 L 85.6092,112.8739 L 85.7919,112.2789 C 86.4133,112.4552 86.4228,112.5897 87.1795,112.6257 L 88.0201,112.6657 C 87.9354,110.2801 88.5561,107.13 91.9146,107.7339 L 94.4107,108.1958 C 94.2934,109.873 93.7921,109.3924 93.7303,110.6908 L 93.717,110.971 C 93.6739,111.8768 94.6675,112.4203 95.6117,112.4653 L 97.8531,112.5719 C 98.509,112.6031 98.996,112.1603 99.0272,111.5045 L 99.1205,109.5432 C 99.7558,109.4267 99.778,109.2936 100.5347,109.3296 L 101.3753,109.3696 C 104.7192,109.5287 101.9293,114.4507 104.2174,114.5595 C 105.0937,114.6012 105.0351,114.0945 105.3914,113.4921 L 106.232,113.5321 L 104.8962,112.8105 C 104.4007,110.4125 105.331,108.1538 101.1617,107.9554 L 100.041,107.9021 C 98.9006,107.8479 98.5128,108.2729 98.0264,108.9295 C 98.0576,109.8093 98.2593,109.9382 98.2133,110.9041 C 98.199,111.2052 97.3405,111.9858 96.7591,111.9582 L 96.1987,111.9315 C 95.3374,111.8905 95.117,111.0574 95.1579,110.1972 C 95.1929,109.4617 95.65,109.4932 95.8116,108.2625 C 93.8396,107.7031 94.9594,107.451 91.9147,107.2484 C 90.3652,107.1453 89.7236,106.3719 89.7942,104.8873 L 89.8609,103.4864 C 91.5379,103.6036 91.0575,104.1049 92.3559,104.1666 C 93.7045,104.2308 95.5044,102.915 95.5578,101.7916 L 95.6111,100.6709 C 95.6483,99.8905 94.5236,98.6535 93.7432,98.6163 L 93.1828,98.5897 C 91.8365,98.5256 91.6872,99.361 90.3409,99.2969 C 89.4797,99.2559 89.2593,98.4228 89.3002,97.5625 L 89.4202,95.0408 L 96.2169,93.6425 L 97.292,94.8537 L 97.3186,94.2933 L 97.0518,93.9999 L 96.7982,93.4261 L 96.5448,92.8524 L 96.3045,91.9986 L 96.0377,91.705 L 95.7975,90.8512 L 95.2371,90.8245 C 95.4465,91.9666 96.0155,92.1706 95.9843,92.8257 C 95.9628,93.2788 90.3014,94.2403 89.7404,94.2136 L 89.4602,94.2003 C 89.1324,94.1847 87.6798,93.1203 86.1513,92.9196 C 85.5556,93.2787 85.384,93.7255 84.7104,93.6935 L 84.15,93.6668 C 83.4764,93.6348 83.348,93.1737 82.7891,92.7597 L 82.7225,94.1606 L 82.7225,94.1606 z "
   style="fill:#314208" />
   <polygon
   id="_59497288"
   class="fil0"
   points="84.6179,113.346 84.6312,113.066 84.3511,113.052 84.3377,113.333 84.6179,113.346 "
   style="fill:#fffff7" />
   <polygon
   id="_58440112"
   class="fil0"
   points="113.757,114.732 113.77,114.452 113.49,114.439 113.477,114.719 113.757,114.732 "
   style="fill:#fffff7" />
   <polygon
   id="_58722256"
   class="fil0"
   points="84.5112,115.587 84.5246,115.307 84.2444,115.294 84.2311,115.574 84.5112,115.587 "
   style="fill:#fffff7" />
   <path
   id="_58724192"
   class="fil19"
   d="M 111.342,118.268 L 111.6355,118.0012 L 111.9557,117.174 L 111.969,116.8938 L 112.1109,114.0649 L 109.6073,113.4116 C 109.3328,114.3793 109.002,114.3283 108.9536,115.3462 L 108.8736,117.0273 C 108.8376,117.7841 108.9707,117.8062 109.0872,118.4415 C 109.83,118.6571 109.602,118.7468 110.1946,118.775 C 110.8227,118.8049 110.8202,118.5825 111.342,118.268 L 111.342,118.268 z "
   style="fill:#0019d6" />
   <path
   id="_58440400"
   class="fil20"
   d="M 86.2323,114.827 L 86.2057,115.3874 L 86.4459,116.2412 L 86.6994,116.8149 L 86.6861,117.0951 L 86.6728,117.3753 L 86.6061,118.7762 L 86.3126,119.0431 L 86.0191,119.3099 L 85.9924,119.8703 L 87.0998,120.2038 C 87.7422,120.2343 88.9198,121.1329 90.7022,121.2177 L 91.8229,121.271 C 93.4939,121.3505 94.6519,120.8328 94.7314,119.1627 C 94.7908,117.9145 93.6313,118.6766 93.6906,117.4284 L 93.704,117.1482 C 93.7352,116.4923 94.2221,116.0496 94.878,116.0808 L 95.9987,116.1341 C 96.6546,116.1653 97.0973,116.6523 97.0661,117.3081 L 97.0528,117.5883 C 96.9934,118.8365 95.9115,117.9679 95.8521,119.2161 L 95.8121,120.0567 C 95.7403,121.5659 98.4325,122.147 100.2413,122.2381 L 99.775,125.2999 L 99.6417,128.1017 C 99.611,128.7473 99.7967,128.9515 100.4422,128.9823 L 101.0026,129.0089 C 102.2437,129.068 104.4035,128.3561 104.3248,130.0094 C 104.2936,130.6653 103.8066,131.108 103.1508,131.0768 L 102.03,131.0235 L 102.0567,130.4632 L 99.8537,130.3757 L 99.1749,132.0109 L 93.2911,131.731 C 91.9904,131.6691 91.9298,127.1732 89.862,127.0748 C 88.8886,127.0285 89.4077,127.6148 88.4344,127.5685 L 87.0334,127.5018 C 85.5263,127.4301 84.6513,124.4493 84.7384,122.6188 C 84.7868,121.601 85.1175,121.6518 85.392,120.6842 L 85.1119,120.6709 L 84.8184,120.9377 L 84.5115,121.4847 L 84.2047,122.0318 L 83.9112,122.2986 L 83.591,123.1259 L 83.2975,123.3927 L 83.2575,124.2333 C 84.1074,124.8858 85.0373,125.7711 85.0854,127.1284 L 83.1242,127.0351 C 82.6656,127.0133 82.2917,126.8274 82.3103,126.4347 C 82.3183,126.2674 82.7247,125.8719 82.9106,125.6209 L 82.964,124.5001 L 82.6838,124.4868 L 82.377,125.0338 L 82.0701,125.5809 L 81.7766,125.8477 L 81.4697,126.3947 L 81.1763,126.6616 L 80.8694,127.2086 L 80.8561,127.4888 L 81.1096,128.0625 L 88.5331,128.1677 L 87.0537,132.872 L 84.5521,132.4385 L 83.9917,132.4118 C 83.2004,132.3742 82.8802,133.0033 82.5374,133.4659 L 82.7243,135.4406 L 82.8444,134.0984 L 83.378,133.5059 C 89.2586,133.7857 87.8049,134.6559 89.1683,129.85 L 90.0088,129.89 C 91.2169,129.9475 92.2927,134.4711 92.2638,135.6136 L 92.624,133.9458 L 92.6507,133.3855 L 92.3966,132.8271 L 100.2556,132.9048 L 101.443,131.5572 C 102.3159,131.6718 102.425,131.8847 103.391,131.9306 C 105.7927,132.0449 105.2423,127.8065 104.1512,127.7546 C 102.6476,127.6831 102.7864,128.5321 101.8698,128.4885 L 100.4689,128.4219 L 100.8112,121.4809 L 102.2164,121.2038 L 101.7227,119.7762 C 101.0752,120.1665 100.685,120.8501 99.9882,120.8169 L 97.7468,120.7103 C 97.1186,120.6804 97.1422,120.4593 96.6527,120.0967 C 96.8753,119.6842 98.4929,116.8323 98.4937,116.8144 C 98.5368,115.9086 97.5433,115.3651 96.5991,115.3201 L 94.3577,115.2135 C 93.7654,115.1853 92.635,116.0064 92.6099,116.5345 C 92.5708,117.3568 93.6311,118.7362 94.1711,119.1361 C 93.6191,120.069 92.9786,121.0451 91.5561,120.9774 C 88.9673,120.8543 87.466,118.4089 87.5933,115.7342 L 87.6295,114.6699 L 86.259,114.2666 L 86.2323,114.827 L 86.2323,114.827 z "
   style="fill:#0c2319" />
   <polygon
   id="_58440496"
   class="fil0"
   points="82.1631,117.722 82.1765,117.442 81.8963,117.429 81.8829,117.709 82.1631,117.722 "
   style="fill:#fffff7" />
   <path
   id="_58721920"
   class="fil2"
   d="M 86.259,114.266 L 87.6295,114.6693 L 87.5933,115.7336 C 87.466,118.4083 88.9673,120.8537 91.5561,120.9768 C 92.9786,121.0445 93.6191,120.0684 94.1711,119.1355 C 93.6311,118.7356 92.5708,117.3562 92.6099,116.5339 C 92.635,116.0058 93.7654,115.1847 94.3577,115.2129 L 96.5991,115.3195 C 97.5433,115.3645 98.5368,115.908 98.4937,116.8138 C 98.4929,116.8317 96.8753,119.6836 96.6527,120.0961 C 97.1422,120.4587 97.1186,120.6798 97.7468,120.7097 L 99.9882,120.8163 C 100.685,120.8495 101.0752,120.1659 101.7227,119.7756 C 101.8321,118.2107 103.1268,115.6301 104.4443,115.6928 L 104.7244,115.7061 C 107.5358,115.8398 107.0647,116.9108 106.4988,113.8248 L 106.232,113.5313 L 105.3914,113.4913 C 105.0351,114.0937 105.0937,114.6004 104.2174,114.5587 C 101.9293,114.4499 104.7192,109.5279 101.3753,109.3688 L 100.5347,109.3288 C 99.778,109.2928 99.7558,109.4259 99.1205,109.5424 L 99.0272,111.5037 C 98.996,112.1595 98.509,112.6023 97.8531,112.5711 L 95.6117,112.4645 C 94.6675,112.4195 93.6739,111.876 93.717,110.9702 L 93.7303,110.69 C 93.7921,109.3916 94.2934,109.8722 94.4107,108.195 L 91.9146,107.7331 C 88.5561,107.1292 87.9354,110.2793 88.0201,112.6649 L 87.1795,112.6249 C 86.4228,112.5889 86.4133,112.4544 85.7919,112.2781 L 85.6092,112.8731 L 86.259,114.266 L 86.259,114.266 z "
   style="fill:#efef21" />
   <path
   id="_58440880"
   class="fil21"
   d="M 102.603,118.975 L 102.563,119.8156 C 102.5274,120.5649 102.928,120.6635 103.3502,120.9763 C 104.2301,120.9451 104.3589,120.7434 105.3249,120.7894 C 105.5632,120.8007 106.1367,121.4315 106.1254,121.67 C 106.0614,123.0162 105.2156,123.0855 105.1516,124.4318 L 105.1383,124.712 C 105.1075,125.3576 105.2932,125.5618 105.9388,125.5925 L 106.7793,125.6325 C 107.4352,125.6637 107.9222,125.2209 107.9534,124.5651 L 107.9667,124.2849 C 108.013,123.3115 107.4267,123.8307 107.473,122.8573 L 107.4997,122.2969 C 107.5471,121.2992 108.2163,121.2305 109.3525,121.2055 L 107.7529,116.9735 C 106.873,117.0047 106.7443,117.2063 105.7783,117.1603 C 104.8486,117.1161 105.22,116.5722 104.6842,116.5467 C 103.7921,116.5043 102.655,117.881 102.603,118.975 L 102.603,118.975 z "
   style="fill:#e61400" />
   <path
   id="_58440784"
   class="fil2"
   d="M 100.256,132.905 L 109.2085,133.6117 L 111.7302,133.7316 L 111.8235,131.7704 L 110.983,131.7304 C 110.0096,131.6841 110.5287,132.2704 109.5554,132.2241 L 108.995,132.1974 C 108.1337,132.1565 107.9133,131.3234 107.9542,130.4631 C 108.0029,129.44 109.2385,127.9968 109.7553,128.0214 C 110.5857,128.0609 111.1174,128.831 111.6633,129.2354 C 112.2502,128.8469 112.5345,128.6322 112.5838,127.5943 L 112.5972,127.3141 C 112.6483,126.2388 110.7599,122.1721 109.755,122.1242 L 107.9193,122.113 L 108.5819,123.6034 L 108.8479,123.4851 C 108.7535,125.468 108.3388,126.4156 106.9935,127.0475 C 105.5362,126.6341 103.9455,126.1865 104.0315,124.3793 L 104.0581,123.8189 C 104.0913,123.1221 104.8087,122.7986 105.2588,122.1911 L 105.3523,121.8316 L 102.2168,121.204 L 100.8116,121.4811 L 100.4693,128.4221 L 101.8702,128.4887 C 102.7868,128.5323 102.648,127.6833 104.1516,127.7548 C 105.2427,127.8067 105.7931,132.0451 103.3914,131.9308 C 102.4254,131.8849 102.3163,131.672 101.4434,131.5574 L 100.256,132.905 L 100.256,132.905 z "
   style="fill:#efef21" />
   <path
   id="_58721976"
   class="fil8"
   d="M 83.2575,124.233 L 82.9773,124.2196 L 82.964,124.4998 L 82.9106,125.6206 C 82.7247,125.8716 82.3183,126.2671 82.3103,126.4344 C 82.2917,126.8271 82.6656,127.013 83.1242,127.0348 L 85.0854,127.1281 C 85.0373,125.7708 84.1074,124.8855 83.2575,124.233 L 83.2575,124.233 z "
   style="fill:#0819c5" />
   <polygon
   id="_58724248"
   class="fil0"
   points="77.2404,126.755 77.2537,126.475 76.9735,126.462 76.9602,126.742 77.2404,126.755 "
   style="fill:#fffff7" />
   <polygon
   id="_59495440"
   class="fil0"
   points="77.1338,128.996 77.1471,128.716 76.8669,128.703 76.8536,128.983 77.1338,128.996 "
   style="fill:#fffff7" />
   <polygon
   id="_60312488"
   class="fil0"
   points="79.3752,129.103 79.3885,128.823 79.1083,128.81 79.095,129.09 79.3752,129.103 "
   style="fill:#fffff7" />
   <path
   id="_58943368"
   class="fil10"
   d="M 85.9924,119.87 L 85.7122,119.8566 L 85.4054,120.4037 L 85.392,120.6839 C 85.1175,121.6515 84.7868,121.6007 84.7384,122.6185 C 84.6513,124.449 85.5263,127.4298 87.0334,127.5015 L 88.4344,127.5682 C 89.4077,127.6145 88.8886,127.0282 89.862,127.0745 C 91.9298,127.1729 91.9904,131.6688 93.2911,131.7307 L 99.1749,132.0106 L 99.8537,130.3754 L 102.0567,130.4629 L 102.03,131.0232 L 103.1508,131.0765 C 103.8066,131.1077 104.2936,130.665 104.3248,130.0091 C 104.4035,128.3558 102.2437,129.0677 101.0026,129.0086 L 100.4422,128.982 C 99.7967,128.9512 99.611,128.747 99.6417,128.1014 L 99.775,125.2996 L 100.2413,122.2378 C 98.4325,122.1467 95.7403,121.5656 95.8121,120.0564 L 95.8521,119.2158 C 95.9115,117.9676 96.9934,118.8362 97.0528,117.588 L 97.0661,117.3078 C 97.0973,116.652 96.6546,116.165 95.9987,116.1338 L 94.878,116.0805 C 94.2221,116.0493 93.7352,116.492 93.704,117.1479 L 93.6906,117.4281 C 93.6313,118.6763 94.7908,117.9142 94.7314,119.1624 C 94.6519,120.8325 93.4939,121.3502 91.8229,121.2707 L 90.7022,121.2174 C 88.9198,121.1326 87.7422,120.234 87.0998,120.2035 L 85.9924,119.87 L 85.9924,119.87 z "
   style="fill:#08a5bd" />
   <polygon
   id="_58707000"
   class="fil0"
   points="117.374,133.157 117.387,132.877 117.107,132.864 117.093,133.144 117.374,133.157 "
   style="fill:#fffff7" />
   <polygon
   id="_58693368"
   class="fil0"
   points="119.615,133.264 119.628,132.984 119.348,132.97 119.335,133.251 119.615,133.264 "
   style="fill:#fffff7" />
   <polygon
   id="_58688376"
   class="fil0"
   points="72.4375,133.266 72.4508,132.986 72.1706,132.973 72.1573,133.253 72.4375,133.266 "
   style="fill:#fffff7" />
   <polygon
   id="_58919224"
   class="fil0"
   points="72.3309,135.507 72.3442,135.227 72.064,135.214 72.0507,135.494 72.3309,135.507 "
   style="fill:#fffff7" />
   <polygon
   id="_58921816"
   class="fil0"
   points="74.5723,135.614 74.5857,135.334 74.3055,135.321 74.2922,135.601 74.5723,135.614 "
   style="fill:#fffff7" />
   <path
   id="_58189016"
   class="fil3"
   d="M 75.6397,136.788 C 76.831,136.8182 79.2922,136.7505 79.3488,135.5604 L 79.3755,135 C 79.4115,134.2433 79.2784,134.2211 79.1619,133.5858 C 78.4192,133.3701 78.6471,133.2804 78.0545,133.2523 C 77.589,133.2301 75.9578,136.2504 75.6397,136.788 L 75.6397,136.788 z "
   style="fill:#efef29" />
   <path
   id="_33394832"
   class="fil22"
   d="M 81.1096,128.062 L 78.3747,132.425 C 78.9373,133.3582 80.2647,134.0168 80.1893,135.6003 C 80.123,136.9944 78.0144,138.305 76.974,138.2555 L 74.7326,138.1488 L 74.6926,138.9894 C 74.6492,139.9002 74.9253,139.2125 75.1863,140.417 L 79.9494,140.6436 C 79.8423,142.1751 79.295,142.5925 79.2157,144.2593 C 79.185,144.9049 79.3707,145.1091 80.0164,145.1398 L 80.5767,145.1665 C 84.0386,145.3312 82.4145,141.0416 85.5398,141.1903 L 86.3803,141.2303 L 86.5634,137.274 L 84.0319,137.468 L 83.4715,137.4413 C 82.1636,137.3791 81.5414,136.6947 81.6036,135.3868 L 81.6436,134.5462 C 81.6792,133.7969 82.0874,133.7367 82.5374,133.4654 C 82.8802,133.0028 83.2004,132.3737 83.9917,132.4113 L 84.5521,132.438 L 87.0537,132.8715 L 88.5331,128.1672 L 81.1096,128.062 L 81.1096,128.062 z "
   style="fill:#ef1000" />
   <path
   id="_59420368"
   class="fil16"
   d="M 82.7243,135.44 C 83.0839,135.7839 83.4033,136.3147 84.0853,136.3471 L 84.3655,136.3605 C 85.8691,136.432 85.7303,135.583 86.6469,135.6266 L 87.7676,135.6799 L 87.5144,141.0034 L 88.3549,141.0434 C 88.3746,141.0443 90.3807,140.421 90.9165,140.3227 L 91.1031,136.4002 L 92.2239,136.4535 L 92.2638,135.613 C 92.2927,134.4705 91.2169,129.9469 90.0088,129.8894 L 89.1683,129.8494 C 87.8049,134.6553 89.2586,133.7851 83.378,133.5053 L 82.8444,134.0978 L 82.7243,135.44 z "
   style="fill:#0010d6" />
   <polygon
   id="_59684816"
   class="fil0"
   points="123.565,144.685 123.578,144.404 123.298,144.391 123.285,144.671 123.565,144.685 "
   style="fill:#fffff7" />
   <path
   id="_59682800"
   class="fil12"
   d="M 92.624,133.946 L 97.0968,146.2781 L 100.7499,146.1269 L 101.6348,146.1642 L 101.4835,142.5112 L 101.5768,140.5499 L 103.3596,140.8252 L 104.8724,142.1107 C 106.9834,141.1192 107.1747,139.1518 105.0723,137.908 C 103.8782,138.4689 103.4012,139.5134 102.7509,139.4825 L 101.369,139.4148 L 101.0702,133.4907 L 92.6507,133.3857 L 92.624,133.946 L 92.624,133.946 z "
   style="fill:#f7ef19" />
   <path
   id="_59254424"
   class="fil13"
   d="M 116.427,147.153 L 118.4282,146.4057 L 119.0286,145.5919 C 118.7635,145.0275 118.5075,144.739 118.5482,143.8841 L 118.5615,143.604 C 118.6331,142.1003 119.4652,142.319 119.5088,141.4024 C 119.5449,140.6428 117.9979,138.3375 116.8535,138.1872 C 116.6286,138.8932 115.947,140.1097 115.0791,140.0684 C 114.2278,140.0279 114.151,139.5372 114.0117,138.8944 L 112.6108,138.8278 C 111.9575,138.7967 111.1743,139.5087 111.1432,140.162 L 111.1166,140.7224 C 111.0732,141.6332 111.3493,140.9455 111.6103,142.15 L 113.7731,142.1941 L 114.4655,141.1625 L 115.306,141.2025 C 116.0973,141.2401 116.3563,141.8969 116.6536,142.3899 L 116.427,147.153 L 116.427,147.153 z "
   style="fill:#0010de" />
   <path
   id="_58297792"
   class="fil22"
   d="M 111.73,133.731 L 109.2083,133.6111 L 103.356,133.6325 L 102.0439,136.6401 C 102.3652,137.1733 102.8061,137.7996 103.6716,137.8408 C 104.5882,137.8844 104.4494,137.0353 105.9531,137.1068 C 106.9259,137.1531 107.7933,139.7435 107.7544,140.5624 C 107.7034,141.6339 106.7387,143.0414 105.6732,142.9907 L 104.8326,142.9507 C 104.0758,142.9147 104.0664,142.7802 103.445,142.6039 L 103.485,141.7634 L 102.084,141.6967 C 102.0577,142.7425 102.3086,145.6388 103.2984,145.6859 L 108.6219,145.9391 C 108.5046,147.6162 108.0033,147.1357 107.9416,148.4341 L 107.8616,150.1152 C 108.8292,150.3897 108.7783,150.7205 109.7962,150.7689 L 110.0764,150.7823 C 112.0194,150.8747 109.7198,147.7378 113.2077,147.1501 C 116.6741,146.566 115.825,148.0001 116.0532,143.2037 L 114.3855,142.8435 L 114.3588,143.4039 L 112.1173,143.2973 C 110.8094,143.2351 110.1872,142.5507 110.2494,141.2427 L 110.316,139.8417 C 110.3609,138.8976 110.9044,137.9041 111.8103,137.9471 L 113.7715,138.0405 C 114.7894,138.0889 114.7385,138.4196 115.7062,138.6941 C 116.0637,138.0898 116.6117,137.3671 116.6533,136.4926 L 116.7066,135.3719 C 116.784,133.745 114.318,130.566 113.9312,128.7811 L 112.8104,128.7277 C 112.6289,129.1634 111.8197,130.0847 111.343,130.062 C 110.3124,130.013 110.7324,129.1905 109.7018,129.1415 C 109.0459,129.1103 108.559,129.5531 108.5278,130.2089 C 108.4966,130.8648 108.9393,131.3518 109.5952,131.383 C 110.525,131.4272 110.2068,130.8505 110.7426,130.876 C 111.4566,130.9099 112.3949,131.5617 112.357,132.3568 L 112.2904,133.7577 L 111.73,133.731 L 111.73,133.731 z "
   style="fill:#ef1000" />
   <polygon
   id="_59722160"
   class="fil0"
   points="69.6762,144.087 69.6896,143.806 69.4094,143.793 69.396,144.073 69.6762,144.087 "
   style="fill:#fffff7" />
   <path
   id="_59723696"
   class="fil23"
   d="M 100.27,150.316 L 100.23,151.1566 C 98.9297,150.9513 98.2209,148.4192 98.1683,147.079 L 101.564,146.727 C 101.3744,148.1709 100.3289,149.0769 100.27,150.316 z M 75.6399,136.7883 C 75.958,136.2507 77.5892,133.2304 78.0547,133.2526 C 78.6473,133.2807 78.4194,133.3704 79.1621,133.5861 C 79.2786,134.2214 79.4117,134.2436 79.3757,135.0003 L 79.349,135.5607 C 79.2924,136.7508 76.8312,136.8185 75.6399,136.7883 L 75.6399,136.7883 z M 80.2692,128.0224 L 79.9624,128.5694 L 79.6556,129.1165 L 79.3621,129.3834 L 79.0552,129.9304 L 78.7617,130.1972 L 78.4549,130.7442 L 78.148,131.2913 L 77.8545,131.5582 L 77.5477,132.1052 L 77.2408,132.6522 L 76.9473,132.9191 L 76.6538,133.1859 L 76.3336,134.0132 L 76.0401,134.2801 L 75.7332,134.827 L 75.4398,135.0939 L 75.1329,135.6409 L 74.8261,136.188 L 74.5192,136.735 L 74.2258,137.0018 L 73.9322,137.2687 L 73.612,138.0959 L 73.3052,138.643 L 73.0116,138.9099 L 72.7049,139.4568 L 72.398,140.0039 L 72.0912,140.5509 L 71.7976,140.8178 L 71.4908,141.3649 L 71.1973,141.6316 L 70.8905,142.1787 L 70.5836,142.7258 L 70.2901,142.9926 L 69.9833,143.5397 L 69.6764,144.0866 L 69.3829,144.3535 L 69.3562,144.9139 L 69.0494,145.4609 C 71.1244,145.5596 70.2703,146.0807 71.2642,146.1279 L 71.5444,146.1413 C 73.1316,146.2168 72.5981,143.1981 73.4052,141.9963 C 74.1872,140.8319 76.9354,141.343 78.7889,141.4312 C 78.5323,141.8649 77.8882,142.6563 77.8684,143.0724 L 77.8551,143.3525 C 77.7702,145.1372 79.1227,145.6113 80.2434,146.2743 C 82.0016,145.9519 83.9006,145.1614 84.0458,143.0854 C 84.6811,142.9688 84.7033,142.8358 85.46,142.8718 L 86.8609,142.9385 C 87.7222,142.9795 87.9426,143.8126 87.9017,144.6729 L 87.7913,147.9033 L 91.7175,147.101 C 91.8341,147.7363 91.9671,147.7585 91.9311,148.5152 L 91.9178,148.7954 C 91.8821,149.5447 91.4739,149.6049 91.0239,149.8762 L 90.9839,150.7167 C 91.7787,150.2376 92.4155,150.1391 92.4782,148.822 L 92.5581,147.141 C 92.6104,146.042 91.2388,145.6741 90.1031,145.6201 L 89.2531,145.5818 L 88.8334,142.7466 L 91.9841,141.4973 L 92.1441,138.1351 C 92.195,137.0639 92.0629,138.029 92.4643,137.3079 C 93.2296,137.8749 96.0005,145.6154 95.9336,147.0207 C 95.8609,148.549 91.6685,155.1345 90.9309,157.7346 L 91.4912,157.7612 L 91.7714,157.7746 L 92.065,157.5078 L 92.3852,156.6805 L 92.6919,156.1335 L 92.9988,155.5864 L 93.319,154.7592 L 93.3456,154.1988 L 93.906,154.2255 L 93.9193,153.9453 L 93.9326,153.6652 L 94.2395,153.1181 L 94.5463,152.5711 L 94.8532,152.024 L 95.1601,151.477 L 95.4668,150.93 L 95.7737,150.3829 L 95.8003,149.8226 L 96.3608,149.8492 L 96.3741,149.569 L 96.4007,149.0086 L 96.6942,148.7418 L 97.0144,147.9146 L 97.2946,147.9279 L 97.5481,148.5016 L 97.7883,149.3555 L 98.0418,149.9292 L 98.2687,151.0633 L 98.5489,151.0766 L 98.8024,151.6502 L 101.0439,151.7569 L 101.0839,150.9164 C 101.1851,148.7883 102.003,146.7479 104.0856,146.847 L 105.7667,146.9269 C 106.5234,146.9629 106.5329,147.0974 107.1876,147.2804 L 106.7541,149.782 L 106.7408,150.0622 C 106.6864,151.2059 108.6364,151.8373 109.7429,151.89 C 111.3237,151.9652 112.3557,150.0941 112.4378,148.3676 C 113.0731,148.251 113.0953,148.118 113.852,148.154 L 114.4124,148.1807 C 115.9839,148.2554 116.3276,149.2425 116.2537,150.7956 L 116.1471,153.0371 L 117.548,153.1037 C 118.3231,153.1406 118.2321,152.9196 118.4285,152.3032 L 119.2691,152.3432 C 120.1304,152.3841 120.3508,153.2173 120.3099,154.0775 L 120.2965,154.3577 C 120.2645,155.0313 119.8034,155.1597 119.3893,155.7187 L 118.5488,155.6787 L 117.1479,155.612 C 117.6072,155.9351 118.3136,156.2292 119.0825,156.2657 C 120.1801,156.3179 121.0934,155.3165 121.1504,154.1175 L 121.1637,153.8374 C 121.2074,152.9201 120.2045,151.826 119.0156,151.7694 C 117.8006,151.7116 118.1295,152.1741 116.7475,152.2232 L 116.8541,149.9817 C 117.0198,146.4999 120.5165,148.3455 120.6802,145.4636 L 119.3488,144.7649 L 119.2688,146.4459 L 118.4282,146.4059 L 116.427,147.1532 L 116.0532,143.204 C 115.825,148.0004 116.6741,146.5663 113.2077,147.1504 C 109.7198,147.7381 112.0194,150.875 110.0764,150.7826 L 109.7962,150.7692 C 108.7783,150.7208 108.8292,150.39 107.8616,150.1155 L 107.9416,148.4344 C 108.0033,147.136 108.5046,147.6165 108.6219,145.9394 L 103.2984,145.6862 C 102.3086,145.6391 102.0577,142.7428 102.084,141.697 L 103.485,141.7637 L 103.445,142.6042 C 104.0664,142.7805 104.0758,142.915 104.8326,142.951 L 105.6732,142.991 C 106.7387,143.0417 107.7034,141.6342 107.7544,140.5627 C 107.7933,139.7438 106.9259,137.1534 105.9531,137.1071 C 104.4494,137.0356 104.5882,137.8847 103.6716,137.8411 C 102.8061,137.7999 102.3652,137.1736 102.0439,136.6404 L 103.356,133.6328 L 109.2083,133.6114 L 100.2558,132.9047 L 92.3968,132.827 L 92.6509,133.3854 L 101.0704,133.4904 L 101.3692,139.4145 L 102.7511,139.4822 C 103.4014,139.5131 103.8784,138.4686 105.0725,137.9077 C 107.1749,139.1515 106.9836,141.1189 104.8726,142.1104 L 103.3598,140.8249 L 101.577,140.5496 L 101.4837,142.5109 L 101.635,146.1639 L 100.7501,146.1266 L 97.097,146.2778 L 92.6242,133.9457 L 92.264,135.6135 L 92.2241,136.454 L 91.1033,136.4007 L 90.9167,140.3232 C 90.3809,140.4215 88.3748,141.0448 88.3551,141.0439 L 87.5146,141.0039 L 87.7678,135.6804 L 86.6471,135.6271 C 85.7305,135.5835 85.8693,136.4325 84.3657,136.361 L 84.0855,136.3476 C 83.4035,136.3152 83.0841,135.7844 82.7245,135.4405 L 82.5376,133.4658 C 82.0876,133.7371 81.6794,133.7973 81.6438,134.5466 L 81.6038,135.3872 C 81.5416,136.6951 82.1638,137.3795 83.4717,137.4417 L 84.0321,137.4684 L 86.5636,137.2744 L 86.3805,141.2307 L 85.54,141.1907 C 82.4147,141.042 84.0388,145.3316 80.5769,145.1669 L 80.0166,145.1402 C 79.3709,145.1095 79.1852,144.9053 79.2159,144.2597 C 79.2952,142.5929 79.8425,142.1755 79.9496,140.644 L 75.1865,140.4174 C 74.9255,139.2129 74.6494,139.9006 74.6928,138.9898 L 74.7328,138.1492 L 76.9742,138.2559 C 78.0146,138.3054 80.1232,136.9948 80.1895,135.6007 C 80.2649,134.0172 78.9375,133.3586 78.3749,132.4254 L 81.1098,128.0624 L 80.8563,127.4887 L 80.5761,127.4754 L 80.2692,128.0224 L 80.2692,128.0224 z "
   style="fill:#1a2106" />
   <path
   id="_59725808"
   class="fil24"
   d="M 100.27,150.316 C 100.3289,149.0769 101.3744,148.1709 101.564,146.727 L 98.1683,147.079 C 98.2209,148.4192 98.9297,150.9513 100.23,151.1566 L 100.27,150.316 z "
   style="fill:#d61908" />
   <polygon
   id="_59728304"
   class="fil0"
   points="67.3281,146.221 67.3415,145.941 67.0613,145.928 67.0479,146.208 67.3281,146.221 "
   style="fill:#fffff7" />
   <polygon
   id="_59729552"
   class="fil0"
   points="125.606,148.994 125.62,148.714 125.339,148.7 125.326,148.981 125.606,148.994 "
   style="fill:#fffff7" />
   <path
   id="_59457752"
   class="fil2"
   d="M 98.5487,151.077 L 98.2285,151.9042 L 98.2152,152.1844 L 98.442,153.3184 L 98.7089,153.612 L 99.2692,153.6386 L 99.2426,154.1989 L 99.5095,154.4925 L 99.7897,154.5058 L 99.5628,153.3718 L 100.9637,153.4384 C 100.8459,155.9145 100.3307,159.0247 102.6584,159.1354 L 105.4602,159.2687 C 106.2169,159.3047 106.2391,159.1716 106.8232,159.0326 L 107.1946,158.2279 C 106.9406,157.6873 105.9054,155.814 105.927,155.3595 C 105.9704,154.4485 107.1823,154.0151 107.9549,154.0518 C 109.502,154.1254 110.435,154.7472 111.5573,155.0656 C 111.4677,156.9494 111.0187,157.4889 109.4627,157.7742 L 109.3961,159.1751 L 111.3623,159.3323 L 114.6079,159.1872 L 116.0802,154.4384 L 117.9416,154.5876 L 118.5486,155.6791 L 119.3891,155.7191 C 119.8032,155.1601 120.2643,155.0317 120.2963,154.3581 L 120.3097,154.0779 C 120.3506,153.2177 120.1302,152.3845 119.2689,152.3436 L 118.4283,152.3036 C 118.2319,152.92 118.3229,153.141 117.5478,153.1041 L 116.1469,153.0375 L 116.2535,150.796 C 116.3274,149.2429 115.9837,148.2558 114.4122,148.1811 L 113.8518,148.1544 C 113.0951,148.1184 113.0729,148.2514 112.4376,148.368 C 112.3555,150.0945 111.3235,151.9656 109.7427,151.8904 C 108.6362,151.8377 106.6862,151.2063 106.7406,150.0626 L 106.7539,149.7824 L 107.1874,147.2808 C 106.5327,147.0978 106.5232,146.9633 105.7665,146.9273 L 104.0854,146.8474 C 102.0028,146.7483 101.1849,148.7887 101.0837,150.9168 L 101.0437,151.7573 L 98.8022,151.6506 L 98.5487,151.077 z "
   style="fill:#efef21" />
   <polygon
   id="_59463032"
   class="fil0"
   points="127.741,151.342 127.754,151.062 127.474,151.048 127.461,151.329 127.741,151.342 "
   style="fill:#fffff7" />
   <path
   id="_59100880"
   class="fil21"
   d="M 90.9837,150.717 L 89.0408,150.6678 L 87.5949,151.1174 L 87.5416,152.2382 C 87.5117,152.8663 87.7341,152.8638 88.0486,153.3856 C 89.3923,153.4495 90.8446,153.6427 90.7838,154.9198 C 90.7215,156.2299 89.8691,156.438 89.8109,158.5719 L 90.9307,157.7349 C 91.6683,155.1348 95.8607,148.5493 95.9334,147.021 C 96.0003,145.6157 93.2294,137.8752 92.4641,137.3082 C 92.0627,138.0293 92.1948,137.0642 92.1439,138.1354 L 91.9839,141.4976 L 88.8332,142.7469 L 89.2529,145.5821 L 90.1029,145.6204 C 91.2386,145.6744 92.6102,146.0423 92.5579,147.1413 L 92.478,148.8223 C 92.4153,150.1394 91.7785,150.2379 90.9837,150.717 L 90.9837,150.717 z "
   style="fill:#e61400" />
   <polygon
   id="_59605264"
   class="fil25"
   points="68.3486,149.346 67.3188,152.382 72.3042,153.483 71.4141,148.969 68.3486,149.346 "
   style="fill:#089cb5" />
   <path
   id="_58721304"
   class="fil2"
   d="M 69.356,144.914 L 68.7957,144.8874 L 68.5022,145.1542 L 68.2087,145.421 L 67.9151,145.6879 L 67.8485,147.0888 C 68.3548,147.4981 68.7661,148.5366 69.463,148.5697 C 70.5311,148.6205 70.5947,147.8024 71.5265,147.223 L 72.3048,147.8624 C 72.1589,150.9285 72.3031,153.1979 75.4137,153.3459 L 76.5344,153.3992 C 77.3947,153.4401 78.2279,153.2198 78.2689,152.3584 C 78.3329,151.0121 77.4976,150.8629 77.5616,149.5166 L 77.615,148.3959 C 78.2502,148.2794 78.2724,148.1463 79.0291,148.1823 L 81.2707,148.2889 C 82.1953,148.3329 83.7743,148.7868 83.739,149.5297 C 83.6871,150.6198 81.8428,152.0262 81.0707,152.4917 C 81.4081,153.2099 81.9436,153.9373 82.9653,153.9859 C 86.1698,154.1384 86.8898,151.423 87.7015,148.8757 L 88.5421,148.9157 C 89.4814,148.9604 89.0686,149.7396 91.0237,149.8763 C 91.4737,149.605 91.8819,149.5448 91.9176,148.7955 L 91.9309,148.5153 C 91.9669,147.7586 91.8339,147.7364 91.7173,147.1011 L 87.7911,147.9034 L 87.9015,144.673 C 87.9424,143.8127 87.722,142.9796 86.8607,142.9386 L 85.4598,142.8719 C 84.7031,142.8359 84.6809,142.9689 84.0456,143.0855 C 83.9004,145.1615 82.0014,145.952 80.2432,146.2744 C 79.1225,145.6114 77.77,145.1373 77.8549,143.3526 L 77.8682,143.0725 C 77.888,142.6564 78.5321,141.865 78.7887,141.4313 C 76.9352,141.3431 74.187,140.832 73.405,141.9964 C 72.5979,143.1982 73.1314,146.2169 71.5442,146.1414 L 71.264,146.128 C 70.2701,146.0808 71.1242,145.5597 69.0492,145.461 L 69.356,144.914 L 69.356,144.914 z "
   style="fill:#efef21" />
   <polygon
   id="_58721416"
   class="fil0"
   points="57.9357,154.761 57.9491,154.481 57.6689,154.467 57.6555,154.747 57.9357,154.761 "
   style="fill:#fffff7" />
   <polygon
   id="_58721528"
   class="fil0"
   points="98.2821,156.68 98.2954,156.4 98.0152,156.387 98.0019,156.667 98.2821,156.68 "
   style="fill:#fffff7" />
   <path
   id="_58721640"
   class="fil13"
   d="M 58.4164,162.366 L 58.3497,163.7669 C 58.9664,164.0239 59.9941,164.9684 60.5379,164.9943 L 72.866,165.5808 L 72.9974,164.176 L 72.8257,160.5242 L 71.9851,160.4842 C 70.4554,160.4114 70.4062,160.9707 68.8765,160.898 L 66.9151,160.8046 L 67.0751,157.4425 C 67.1058,156.7969 67.3101,156.6112 67.9557,156.6419 L 69.6367,156.7218 C 70.6101,156.7681 70.0377,157.3026 71.011,157.3489 L 71.8516,157.3889 L 71.9982,154.3068 L 68.3558,154.1335 C 67.8355,154.1088 66.7077,153.3605 66.7414,152.6526 C 66.831,150.7688 67.5473,150.9911 67.7285,149.6107 C 66.294,149.6989 63.6583,154.541 62.9466,155.8499 C 62.3101,157.0205 58.4543,161.5687 58.4164,162.366 L 58.4164,162.366 z "
   style="fill:#0010de" />
   <polygon
   id="_58721752"
   class="fil0"
   points="57.8291,157.002 57.8424,156.722 57.5622,156.709 57.5489,156.989 57.8291,157.002 "
   style="fill:#fffff7" />
   <path
   id="_58440592"
   class="fil22"
   d="M 119.349,144.765 L 120.6804,145.4637 C 120.5167,148.3456 117.02,146.5 116.8543,149.9818 L 116.7477,152.2233 C 118.1297,152.1742 117.8008,151.7117 119.0158,151.7695 C 120.2047,151.8261 121.2076,152.9202 121.1639,153.8375 L 121.1506,154.1176 C 121.0936,155.3166 120.1803,156.318 119.0827,156.2658 C 118.3138,156.2293 117.6074,155.9352 117.1481,155.6121 C 116.0806,155.9421 115.9149,157.5195 115.591,158.6795 L 117.8286,159.0143 C 118.1878,159.61 118.6346,159.7816 118.6026,160.4552 L 118.5359,161.8561 C 118.4912,162.7954 117.7121,162.3827 117.5754,164.3378 C 118.5672,164.6191 118.8652,164.9608 120.0704,165.0181 C 120.716,165.0489 120.9202,164.8631 120.9509,164.2175 L 121.0176,162.8166 C 120.3441,162.536 120.1923,162.4545 120.2436,161.3757 C 120.2748,160.7199 120.7619,160.2771 121.4178,160.3083 L 124.7799,160.4682 L 124.9399,157.1061 C 125.035,155.1069 126.0563,156.236 126.2072,154.0774 C 125.5805,153.8777 125.0993,153.7546 125.1398,152.9033 L 125.1531,152.6232 C 125.1974,151.6934 125.7413,152.0649 125.7668,151.5291 C 125.8752,149.2497 123.751,148.8909 122.7728,147.8176 C 121.08,145.9602 122.1357,143.2126 120.8299,143.1505 C 119.9191,143.1072 120.6068,143.3832 119.4023,143.6443 L 119.349,144.765 L 119.349,144.765 z "
   style="fill:#ef1000" />
   <path
   id="_59492408"
   class="fil26"
   d="M 126.02,158 L 125.94,159.6811 C 127.8483,159.8146 126.7876,160.2831 127.8746,160.3348 L 129.2755,160.4015 L 129.3289,159.2808 C 129.3906,157.983 127.8756,157.4392 127.7944,156.1187 C 126.5983,156.1612 126.0799,156.7406 126.02,158 L 126.02,158 z "
   style="fill:#0010ce" />
   <polygon
   id="_58439824"
   class="fil0"
   points="131.797,160.521 131.811,160.241 131.531,160.228 131.517,160.508 131.797,160.521 "
   style="fill:#fffff7" />
   <path
   id="_58306696"
   class="fil14"
   d="M 107.742,158.534 C 107.6489,160.4926 104.6898,160.3546 102.6054,160.2554 C 103.2495,161.7795 105.674,171.3532 106.8488,171.4091 L 112.1722,171.6624 C 112.2405,170.2257 112.6962,168.9085 114.2679,169.1648 L 116.4816,169.6209 C 116.9316,169.3496 117.3398,169.2894 117.3754,168.5401 C 117.4061,167.8945 117.2205,167.6903 116.5749,167.6596 C 115.3509,167.6013 115.5308,168.1716 114.3068,168.1133 L 114.0266,168.1 C 113.0427,168.0532 112.965,166.8034 113.0125,165.8052 L 113.2791,160.2015 L 110.4772,160.0682 C 109.3455,160.0144 108.545,159.365 108.596,158.2939 C 108.6156,157.8815 110.3507,156.8248 110.3703,156.4125 C 110.4093,155.5928 108.3351,154.9116 107.9153,154.8917 C 106.0115,154.8011 107.7781,157.777 107.742,158.534 L 107.742,158.534 z "
   style="fill:#089cbd" />
   <path
   id="_58687608"
   class="fil2"
   d="M 85.4085,159.426 L 85.4473,160.8435 C 85.4113,161.6002 85.5443,161.6224 85.6608,162.2576 L 86.1873,162.2718 L 86.5547,161.1769 C 87.1854,161.1545 89.3674,161.0821 89.3965,160.4697 C 89.4528,159.2863 88.0764,158.7039 88.1022,158.1616 C 88.1545,157.0619 88.3832,156.4558 89.3162,156.2536 L 89.4095,154.2923 L 86.2386,154.1318 L 85.4085,159.426 L 85.4085,159.426 z "
   style="fill:#efef21" />
   <polygon
   id="_59511672"
   class="fil0"
   points="102.445,163.618 102.458,163.338 102.178,163.324 102.165,163.605 102.445,163.618 "
   style="fill:#fffff7" />
   <path
   id="_58439440"
   class="fil22"
   d="M 126.421,161.389 L 125.8475,167.5397 C 125.6258,167.6733 124.6218,168.3238 124.4066,168.3136 C 123.2481,168.2585 121.9286,167.2763 121.8583,168.754 L 121.845,169.0341 C 121.7459,171.1164 125.507,168.4404 125.6343,172.0226 C 126.377,172.2382 126.1491,172.3279 126.7416,172.3561 C 126.8283,172.3602 132.0152,167.7556 132.0782,166.432 L 132.1315,165.3113 C 132.2127,163.6053 130.7317,161.3133 128.9559,161.2288 L 127.8351,161.1755 C 127.3938,161.1545 126.7664,161.2735 126.421,161.389 L 126.421,161.389 z "
   style="fill:#ef1000" />
   <polygon
   id="_59511728"
   class="fil0"
   points="102.339,165.859 102.352,165.579 102.072,165.566 102.058,165.846 102.339,165.859 "
   style="fill:#fffff7" />
   <path
   id="_58631464"
   class="fil10"
   d="M 78.669,149.85 L 78.6424,150.4104 C 78.5841,151.6344 79.1543,151.4545 79.0961,152.6785 L 79.0827,152.9587 C 79.0373,153.9132 77.4425,154.5655 76.4811,154.5198 L 73.0534,154.3629 L 73.1992,158.5759 L 71.7983,158.5093 C 70.8745,158.4654 69.6873,157.5684 68.4945,157.2442 L 67.6355,157.4688 L 67.5555,159.1499 C 67.5298,159.6911 68.0018,160.2944 68.3427,160.3106 C 69.1589,160.3494 70.5795,159.2001 71.2102,159.2614 L 73.6437,159.7283 L 74,165.3537 L 75.4071,165.3526 L 84.6272,166.1404 L 84.6065,154.9063 L 82.365,154.7997 C 81.5096,154.759 80.1486,154.1652 80.1901,153.2922 L 80.2035,153.012 C 80.2315,152.4235 81.4124,151.2101 81.4708,149.9833 C 81.5015,149.3378 81.3159,149.1335 80.6703,149.1028 L 79.5495,149.0495 C 78.9039,149.0188 78.6997,149.2045 78.669,149.85 L 78.669,149.85 z "
   style="fill:#08a5bd" />
   <polygon
   id="_59264504"
   class="fil0"
   points="57.2959,168.209 57.3093,167.929 57.0291,167.916 57.0157,168.196 57.2959,168.209 "
   style="fill:#fffff7" />
   <polygon
   id="_58450504"
   class="fil0"
   points="104.367,170.449 104.38,170.169 104.1,170.155 104.087,170.435 104.367,170.449 "
   style="fill:#fffff7" />
   <path
   id="_59327096"
   class="fil2"
   d="M 114.106,160.522 L 113.7058,163.0303 L 113.6258,164.7115 C 113.397,169.5211 115.0241,166.4628 116.6279,166.5391 C 117.699,166.5901 118.2696,167.4487 118.2157,168.5804 C 118.1668,169.6089 117.7172,169.9141 117.2818,170.5017 C 114.6566,170.3768 112.6086,169.5004 113.018,171.6378 L 124.2065,172.516 C 124.8484,172.5702 125.0573,172.3396 125.087,171.7154 C 125.1287,170.8392 124.6219,170.8978 124.0196,170.5414 C 123.6144,170.7189 123.541,170.7995 122.8855,170.7683 L 122.3251,170.7416 C 121.5684,170.7056 121.5589,170.5711 120.9376,170.3948 C 120.821,169.7594 120.6881,169.7373 120.7241,168.9805 L 120.764,168.14 C 120.8071,167.2343 121.8478,166.7875 122.7919,166.8324 C 123.7653,166.8787 123.1929,167.4131 124.1662,167.4594 L 124.4464,167.4728 C 125.7363,167.5341 125.045,166.695 125.0867,165.8183 L 125.3133,161.0552 L 121.6709,160.8819 C 121.2123,160.8601 120.8224,161.0097 120.8037,161.4022 C 120.7348,162.8515 121.8926,162.1248 121.8045,163.9772 C 121.7685,164.7339 121.634,164.7434 121.4577,165.3648 C 120.8223,165.4814 120.8001,165.6144 120.0434,165.5784 L 118.6426,165.5117 C 117.5107,165.4579 116.7102,164.8084 116.7612,163.7373 C 116.7929,163.072 117.9422,161.5991 118.2954,161.0022 C 117.9807,160.6033 117.0061,159.5367 116.4008,159.5079 C 115.8099,159.4798 114.6868,160.2492 114.106,160.522 L 114.106,160.522 z "
   style="fill:#efef21" />
   <polygon
   id="_59485376"
   class="fil0"
   points="61.6722,170.664 61.6855,170.384 61.4053,170.371 61.392,170.651 61.6722,170.664 "
   style="fill:#fffff7" />
   <polygon
   id="_59928880"
   class="fil0"
   points="131.158,173.97 131.171,173.69 130.891,173.676 130.878,173.957 131.158,173.97 "
   style="fill:#fffff7" />
   <path
   id="_59265080"
   class="fil27"
   d="M 83.4628,171.679 C 82.5173,171.3827 82.0287,170.5098 81.3384,170.477 L 79.9374,170.4103 C 79.0258,170.367 77.039,172.3081 77.0023,173.0788 L 76.9756,173.6392 C 76.8915,175.4077 78.7151,176.7365 79.8513,177.4109 L 76.5673,183.7717 L 76.1717,179.8799 L 72.2438,178.7462 L 70.4368,176.3283 L 70.6783,176.1478 C 71.9707,176.2382 71.6042,176.4727 72.6262,176.5213 C 73.8264,176.5784 75.75,175.7921 75.8016,174.7066 L 75.8416,173.8661 C 75.9467,171.6576 75.5071,171.3779 75.1877,169.9035 L 73.5066,169.8235 C 72.0903,169.7562 71.9968,170.2038 70.678,170.2506 L 70.8513,166.6082 L 73.385,166.6184 L 84.9673,167.888 L 83.4628,171.679 L 83.4628,171.679 z M 60.2774,166.3027 L 68.9814,166.55 L 69.7575,171.8917 L 71.7188,171.985 C 71.9421,171.2843 72.3268,170.6098 73.1864,170.6507 C 74.2613,170.7019 75.1092,171.5526 75.0677,172.4252 L 75.0411,172.9855 C 74.9961,173.9297 74.4526,174.9233 73.5468,174.8802 L 72.9864,174.8535 C 72.1268,174.8126 71.8079,174.1047 71.6521,173.3859 L 69.6909,173.2926 L 69.4658,176.4457 L 60.2774,166.3027 L 60.2774,166.3027 z M 86.2386,154.1322 L 89.4095,154.2927 L 89.3162,156.254 C 88.3832,156.4562 88.1545,157.0623 88.1022,158.162 C 88.0764,158.7043 89.4528,159.2867 89.3965,160.4701 C 89.3674,161.0825 87.1854,161.1549 86.5547,161.1773 L 86.1873,162.2722 L 85.6608,162.258 C 85.5443,161.6228 85.4113,161.6006 85.4473,160.8439 L 85.4085,159.4264 L 86.2386,154.1322 L 86.2386,154.1322 z M 71.4141,148.9695 L 72.3042,153.4833 L 67.3188,152.3826 L 68.3486,149.3461 L 71.4141,148.9695 L 71.4141,148.9695 z M 58.4164,162.366 C 58.4543,161.5687 62.3101,157.0205 62.9466,155.8499 C 63.6583,154.541 66.294,149.6989 67.7285,149.6107 C 67.5473,150.9911 66.831,150.7688 66.7414,152.6526 C 66.7077,153.3605 67.8355,154.1088 68.3558,154.1335 L 71.9982,154.3068 L 71.8516,157.3889 L 71.011,157.3489 C 70.0377,157.3026 70.6101,156.7681 69.6367,156.7218 L 67.9557,156.6419 C 67.3101,156.6112 67.1058,156.7969 67.0751,157.4425 L 66.9151,160.8046 L 68.8765,160.898 C 70.4062,160.9707 70.4554,160.4114 71.9851,160.4842 L 72.8257,160.5242 L 72.9974,164.176 L 72.866,165.5808 L 60.5379,164.9943 C 59.9941,164.9684 58.9664,164.0239 58.3497,163.7669 L 58.4164,162.366 L 58.4164,162.366 z M 78.669,149.8503 C 78.6997,149.2048 78.9039,149.0191 79.5495,149.0498 L 80.6703,149.1031 C 81.3159,149.1338 81.5015,149.3381 81.4708,149.9836 C 81.4124,151.2104 80.2315,152.4238 80.2035,153.0123 L 80.1901,153.2925 C 80.1486,154.1655 81.5096,154.7593 82.365,154.8 L 84.6065,154.9066 L 84.6272,166.1407 L 75.4071,165.3529 L 74,165.354 L 73.6437,159.7286 L 71.2102,159.2617 C 70.5795,159.2004 69.1589,160.3497 68.3427,160.3109 C 68.0018,160.2947 67.5298,159.6914 67.5555,159.1502 L 67.6355,157.4691 L 68.4945,157.2445 C 69.6873,157.5687 70.8745,158.4657 71.7983,158.5096 L 73.1992,158.5762 L 73.0534,154.3632 L 76.4811,154.5201 C 77.4425,154.5658 79.0373,153.9135 79.0827,152.959 L 79.0961,152.6788 C 79.1543,151.4548 78.5841,151.6347 78.6424,150.4107 L 78.669,149.8503 z M 67.2615,147.6227 L 66.9546,148.1698 L 66.6478,148.7168 L 66.3542,148.9836 L 66.0475,149.5307 L 65.7539,149.7976 L 65.4471,150.3446 L 65.1402,150.8916 L 64.8334,151.4386 L 64.5399,151.7055 L 64.233,152.2526 L 63.9395,152.5194 L 63.6327,153.0664 L 63.3392,153.3333 L 63.0324,153.8803 L 62.7255,154.4274 L 62.4186,154.9744 L 62.1251,155.2412 L 61.8183,155.7883 L 61.5248,156.0552 L 61.2179,156.6022 L 60.9244,156.869 L 60.8844,157.7096 L 60.3241,157.6829 L 60.0306,157.9498 L 59.7104,158.777 L 59.4035,159.324 L 58.8299,159.5776 L 58.8165,159.8577 L 58.8032,160.1379 L 58.5097,160.4048 L 58.2028,160.9518 L 57.9094,161.2186 L 57.6025,161.7657 L 57.309,162.0326 L 57.2023,164.274 L 57.4692,164.5676 L 57.7361,164.861 L 57.9895,165.4347 L 58.5366,165.7416 L 58.8035,166.035 L 59.0703,166.3286 L 59.3372,166.6221 L 59.604,166.9156 L 59.8709,167.2092 L 60.1378,167.5026 L 60.4046,167.7961 L 60.6714,168.0897 L 61.2318,168.1163 L 61.2052,168.6767 L 61.472,168.9702 L 61.7388,169.2637 L 62.0057,169.5572 L 62.2726,169.8507 L 62.5395,170.1442 L 62.8062,170.4378 L 63.3666,170.4644 L 63.34,171.0248 L 63.9003,171.0515 L 63.8737,171.6118 L 64.1405,171.9053 L 64.4074,172.1989 L 64.6743,172.4923 L 64.9411,172.7858 L 65.5015,172.8125 L 65.4748,173.3729 L 65.7417,173.6664 L 66.0085,173.9599 L 66.5689,173.9865 L 66.5422,174.5469 L 67.1026,174.5736 L 67.076,175.1339 L 67.6363,175.1606 L 67.6096,175.721 L 67.8765,176.0145 L 68.1434,176.308 L 68.4102,176.6015 L 68.677,176.895 L 68.9439,177.1885 L 69.2108,177.4821 L 69.7578,177.7889 L 70.0246,178.0824 L 70.2915,178.3759 L 70.5584,178.6694 L 70.8252,178.963 L 71.092,179.2564 L 71.3589,179.55 L 71.6258,179.8435 L 71.8926,180.137 L 72.1595,180.4305 L 72.413,181.0042 L 72.9601,181.3111 L 73.2269,181.6045 L 73.4937,181.898 L 73.7606,182.1916 L 74.0275,182.4851 L 74.2943,182.7786 L 74.5612,183.0721 L 74.828,183.3656 L 75.0815,183.9393 L 75.3484,184.2328 L 75.6019,184.8065 L 77.0029,184.8732 L 77.2963,184.6063 L 77.5899,184.3394 L 77.8967,183.7924 L 78.1902,183.5256 L 78.5238,182.4182 L 78.8172,182.1513 L 79.1507,181.0439 L 79.4576,180.4969 L 79.7644,179.9498 L 80.0712,179.4028 L 80.3781,178.8558 L 80.6849,178.3087 L 81.0051,177.4815 L 81.312,176.9345 L 81.6188,176.3874 L 81.6454,175.827 C 81.0101,175.9436 80.9879,176.0766 80.2312,176.0406 L 79.2409,175.8687 L 78.043,174.8132 L 78.1097,173.4123 C 78.1418,172.7377 79.1961,171.7791 79.8708,171.8112 L 80.4311,171.8379 C 82.1531,171.9198 81.9623,173.1264 82.566,174.186 L 82.8595,173.9191 L 83.153,173.6522 L 83.4732,172.825 L 83.7667,172.5582 L 84.0736,172.0112 L 84.3937,171.1839 L 84.6872,170.917 L 84.9941,170.37 L 85.3143,169.5429 L 85.621,168.9958 L 85.9279,168.4488 L 86.2348,167.9017 L 86.5549,167.0745 L 86.8485,166.8077 L 87.1419,166.5408 L 87.4621,165.7136 L 87.7556,165.4467 L 88.0625,164.8996 L 88.3826,164.0724 L 88.6895,163.5255 L 88.9963,162.9784 L 89.3032,162.4313 L 89.61,161.8843 L 89.9302,161.0571 L 90.2237,160.7903 L 90.5439,159.963 L 90.8507,159.416 L 91.1575,158.8689 L 91.451,158.6021 L 91.491,157.7615 L 90.9307,157.7349 L 89.8109,158.5719 C 89.8691,156.438 90.7215,156.2299 90.7838,154.9198 C 90.8446,153.6427 89.3923,153.4495 88.0486,153.3856 C 87.7341,152.8638 87.5117,152.8663 87.5416,152.2382 L 87.5949,151.1174 L 89.0408,150.6678 L 90.9837,150.717 L 91.0237,149.8765 C 89.0686,149.7398 89.4814,148.9606 88.5421,148.9159 L 87.7015,148.8759 C 86.8898,151.4232 86.1698,154.1386 82.9653,153.9861 C 81.9436,153.9375 81.4081,153.2101 81.0707,152.4919 C 81.8428,152.0264 83.6871,150.62 83.739,149.5299 C 83.7743,148.787 82.1953,148.3331 81.2707,148.2891 L 79.0291,148.1825 C 78.2724,148.1465 78.2502,148.2796 77.615,148.3961 L 77.5616,149.5168 C 77.4976,150.8631 78.3329,151.0123 78.2689,152.3586 C 78.2279,153.22 77.3947,153.4403 76.5344,153.3994 L 75.4137,153.3461 C 72.3031,153.1981 72.1589,150.9287 72.3048,147.8626 L 71.5265,147.2232 C 70.5947,147.8026 70.5311,148.6207 69.463,148.5699 C 68.7661,148.5368 68.3548,147.4983 67.8485,147.089 L 67.5683,147.0757 L 67.2615,147.6227 L 67.2615,147.6227 z "
   style="fill:#1d3a25" />
   <polygon
   id="_59678960"
   class="fil0"
   points="106.395,175.038 106.408,174.758 106.128,174.745 106.115,175.025 106.395,175.038 "
   style="fill:#fffff7" />
   <path
   id="_59265272"
   class="fil2"
   d="M 60.2774,166.302 L 69.4658,176.445 L 69.6909,173.2919 L 71.6521,173.3852 C 71.8079,174.104 72.1268,174.8119 72.9864,174.8528 L 73.5468,174.8795 C 74.4526,174.9226 74.9961,173.929 75.0411,172.9848 L 75.0677,172.4245 C 75.1092,171.5519 74.2613,170.7012 73.1864,170.65 C 72.3268,170.6091 71.9421,171.2836 71.7188,171.9843 L 69.7575,171.891 L 68.9814,166.5493 L 60.2774,166.302 L 60.2774,166.302 z "
   style="fill:#efef21" />
   <path
   id="_59265464"
   class="fil11"
   d="M 117.575,180.56 L 115.428,179.9616 L 115.3966,180.4701 L 112.5861,180.6689 C 112.2628,180.6978 112.0294,180.4916 111.4852,180.3347 L 111.3052,178.0806 L 115.7881,178.2939 C 117.4551,178.3732 116.6656,173.281 118.5497,173.3706 L 124.1534,173.6372 L 124.3688,173.8555 L 117.575,180.56 L 117.575,180.56 z M 106.782,172.8108 L 116.3082,173.264 C 116.2755,174.559 116.5437,174.2164 116.4951,175.2385 C 116.4433,176.3267 115.7304,177.7295 114.694,177.6802 C 113.9189,177.6433 114.0305,177.432 113.8935,176.7997 L 112.4926,176.733 C 111.5484,176.6881 110.5077,177.1349 110.4646,178.0407 L 110.4113,179.1614 C 110.3626,180.1853 111.0779,181.4396 111.9858,181.4828 L 113.9471,181.5761 C 114.9204,181.6224 114.4013,181.0361 115.3747,181.0824 C 116.1239,181.1181 116.1841,181.5263 116.4554,181.9763 C 116.1379,182.4049 111.8502,185.6886 111.5056,185.6722 C 110.3376,185.6167 107.449,174.5169 106.782,172.8108 L 106.782,172.8108 z M 126.421,161.3891 C 126.7664,161.2736 127.3938,161.1546 127.8351,161.1756 L 128.9559,161.2289 C 130.7317,161.3134 132.2127,163.6054 132.1315,165.3114 L 132.0782,166.4321 C 132.0152,167.7557 126.8283,172.3603 126.7416,172.3562 C 126.1491,172.328 126.377,172.2383 125.6343,172.0227 C 125.507,168.4405 121.7459,171.1165 121.845,169.0342 L 121.8583,168.7541 C 121.9286,167.2764 123.2481,168.2586 124.4066,168.3137 C 124.6218,168.3239 125.6258,167.6734 125.8475,167.5398 L 126.421,161.3891 L 126.421,161.3891 z M 114.1062,160.5224 C 114.687,160.2496 115.8101,159.4802 116.401,159.5083 C 117.0063,159.5371 117.9809,160.6037 118.2956,161.0026 C 117.9424,161.5995 116.7931,163.0724 116.7614,163.7377 C 116.7104,164.8088 117.5109,165.4583 118.6428,165.5121 L 120.0436,165.5788 C 120.8003,165.6148 120.8225,165.4818 121.4579,165.3652 C 121.6342,164.7438 121.7687,164.7343 121.8047,163.9776 C 121.8928,162.1252 120.735,162.8519 120.8039,161.4026 C 120.8226,161.0101 121.2125,160.8605 121.6711,160.8823 L 125.3135,161.0556 L 125.0869,165.8187 C 125.0452,166.6954 125.7365,167.5345 124.4466,167.4732 L 124.1664,167.4598 C 123.1931,167.4135 123.7655,166.8791 122.7921,166.8328 C 121.848,166.7879 120.8073,167.2347 120.7642,168.1404 L 120.7243,168.9809 C 120.6883,169.7377 120.8212,169.7598 120.9378,170.3952 C 121.5591,170.5715 121.5686,170.706 122.3253,170.742 L 122.8857,170.7687 C 123.5412,170.7999 123.6146,170.7193 124.0198,170.5418 C 124.6221,170.8982 125.1289,170.8396 125.0872,171.7158 C 125.0575,172.34 124.8486,172.5706 124.2067,172.5164 L 113.0182,171.6382 C 112.6088,169.5008 114.6568,170.3772 117.282,170.5021 C 117.7174,169.9145 118.167,169.6093 118.2159,168.5808 C 118.2698,167.4491 117.6992,166.5905 116.6281,166.5395 C 115.0243,166.4632 113.3972,169.5215 113.626,164.7119 L 113.706,163.0307 L 114.1062,160.5224 L 114.1062,160.5224 z M 126.0205,158.0002 C 126.0804,156.7408 126.5988,156.1614 127.7949,156.1189 C 127.8761,157.4394 129.3911,157.9832 129.3294,159.281 L 129.276,160.4017 L 127.8751,160.335 C 126.7881,160.2833 127.8488,159.8148 125.9405,159.6813 L 126.0205,158.0002 L 126.0205,158.0002 z M 106.8487,171.4098 C 105.6739,171.3539 103.2494,161.7802 102.6053,160.2561 C 104.6897,160.3553 107.6488,160.4933 107.7419,158.5347 C 107.778,157.7777 106.0114,154.8018 107.9152,154.8924 C 108.335,154.9123 110.4092,155.5935 110.3702,156.4132 C 110.3506,156.8255 108.6155,157.8822 108.5959,158.2946 C 108.5449,159.3657 109.3454,160.0151 110.4771,160.0689 L 113.279,160.2022 L 113.0124,165.8059 C 112.9649,166.8041 113.0426,168.0539 114.0265,168.1007 L 114.3067,168.114 C 115.5307,168.1723 115.3508,167.602 116.5748,167.6603 C 117.2204,167.691 117.406,167.8952 117.3753,168.5408 C 117.3397,169.2901 116.9315,169.3503 116.4815,169.6216 L 114.2678,169.1655 C 112.6961,168.9092 112.2404,170.2264 112.1721,171.6631 L 106.8487,171.4098 L 106.8487,171.4098 z M 105.9393,125.5934 C 105.2937,125.5627 105.108,125.3585 105.1388,124.7129 L 105.1521,124.4327 C 105.2161,123.0864 106.0619,123.0171 106.1259,121.6709 C 106.1372,121.4324 105.5637,120.8016 105.3254,120.7903 C 104.3594,120.7443 104.2306,120.946 103.3507,120.9772 C 102.9285,120.6644 102.5279,120.5658 102.5635,119.8165 L 102.6035,118.9759 C 102.6555,117.8819 103.7926,116.5052 104.6847,116.5476 C 105.2205,116.5731 104.8491,117.117 105.7788,117.1612 C 106.7448,117.2072 106.8735,117.0056 107.7534,116.9744 L 109.353,121.2064 C 108.2168,121.2314 107.5476,121.3001 107.5002,122.2978 L 107.4735,122.8582 C 107.4272,123.8316 108.0135,123.3124 107.9672,124.2858 L 107.9539,124.566 C 107.9227,125.2218 107.4357,125.6646 106.7798,125.6334 L 105.9393,125.5934 L 105.9393,125.5934 z M 106.4991,113.8257 C 107.065,116.9117 107.5361,115.8407 104.7247,115.707 L 104.4446,115.6937 C 103.1271,115.631 101.8324,118.2116 101.723,119.7765 L 102.2167,121.2041 L 105.3522,121.8317 L 105.2587,122.1912 C 104.8086,122.7987 104.0912,123.1222 104.058,123.819 L 104.0314,124.3794 C 103.9454,126.1866 105.5361,126.6342 106.9934,127.0476 C 108.3387,126.4157 108.7534,125.4681 108.8478,123.4852 L 108.5818,123.6035 L 107.9192,122.1131 L 109.7549,122.1243 C 110.7598,122.1722 112.6482,126.2389 112.5971,127.3142 L 112.5837,127.5944 C 112.5344,128.6323 112.2501,128.847 111.6632,129.2355 C 111.1173,128.8311 110.5856,128.061 109.7552,128.0215 C 109.2384,127.9969 108.0028,129.4401 107.9541,130.4632 C 107.9132,131.3235 108.1336,132.1566 108.9949,132.1975 L 109.5553,132.2242 C 110.5286,132.2705 110.0095,131.6842 110.9829,131.7305 L 111.8234,131.7705 L 111.7301,133.7317 L 112.2905,133.7584 L 112.3571,132.3575 C 112.395,131.5624 111.4567,130.9106 110.7427,130.8767 C 110.2069,130.8512 110.5251,131.4279 109.5953,131.3837 C 108.9394,131.3525 108.4967,130.8655 108.5279,130.2096 C 108.5591,129.5538 109.046,129.111 109.7019,129.1422 C 110.7325,129.1912 110.3125,130.0137 111.3431,130.0627 C 111.8198,130.0854 112.629,129.1641 112.8105,128.7284 L 113.9313,128.7818 C 114.3181,130.5667 116.7841,133.7457 116.7067,135.3726 L 116.6534,136.4933 C 116.6118,137.3678 116.0638,138.0905 115.7063,138.6948 C 114.7386,138.4203 114.7895,138.0896 113.7716,138.0412 L 111.8104,137.9478 C 110.9045,137.9048 110.361,138.8983 110.3161,139.8424 L 110.2495,141.2434 C 110.1873,142.5514 110.8095,143.2358 112.1174,143.298 L 114.3589,143.4046 L 114.3856,142.8442 L 116.0533,143.2044 L 116.4271,147.1536 L 116.6537,142.3905 C 116.3564,141.8975 116.0974,141.2407 115.3061,141.2031 L 114.4656,141.1631 L 113.7732,142.1947 L 111.6104,142.1506 C 111.3494,140.9461 111.0733,141.6338 111.1167,140.723 L 111.1433,140.1626 C 111.1744,139.5093 111.9576,138.7973 112.6109,138.8284 L 114.0118,138.895 C 114.1511,139.5378 114.2279,140.0285 115.0792,140.069 C 115.9471,140.1103 116.6287,138.8938 116.8536,138.1878 C 117.998,138.3381 119.545,140.6434 119.5089,141.403 C 119.4653,142.3196 118.6332,142.1009 118.5616,143.6046 L 118.5483,143.8847 C 118.5076,144.7396 118.7636,145.0281 119.0287,145.5925 L 118.4283,146.4063 L 119.2689,146.4463 L 119.3489,144.7653 L 119.4022,143.6446 C 120.6067,143.3835 119.919,143.1075 120.8298,143.1508 C 122.1356,143.2129 121.0799,145.9605 122.7727,147.8179 C 123.7509,148.8912 125.8751,149.25 125.7667,151.5294 C 125.7412,152.0652 125.1973,151.6937 125.153,152.6235 L 125.1397,152.9036 C 125.0992,153.7549 125.5804,153.878 126.2071,154.0777 C 126.0562,156.2363 125.0349,155.1072 124.9398,157.1064 L 124.7798,160.4685 L 121.4177,160.3086 C 120.7618,160.2774 120.2747,160.7202 120.2435,161.376 C 120.1922,162.4548 120.344,162.5363 121.0175,162.8169 L 120.9508,164.2178 C 120.9201,164.8634 120.7159,165.0492 120.0703,165.0184 C 118.8651,164.9611 118.5671,164.6194 117.5753,164.3381 C 117.712,162.383 118.4911,162.7957 118.5358,161.8564 L 118.6025,160.4555 C 118.6345,159.7819 118.1877,159.6103 117.8285,159.0146 L 115.5909,158.6798 C 115.9148,157.5198 116.0805,155.9424 117.148,155.6124 L 118.5489,155.6791 L 117.9419,154.5876 L 116.0805,154.4384 L 114.6082,159.1872 L 111.3626,159.3323 L 109.3964,159.1751 L 109.463,157.7742 C 111.019,157.4889 111.468,156.9494 111.5576,155.0656 C 110.4353,154.7472 109.5023,154.1254 107.9552,154.0518 C 107.1826,154.0151 105.9707,154.4485 105.9273,155.3595 C 105.9057,155.814 106.9409,157.6873 107.1949,158.2279 L 106.8235,159.0326 C 106.2394,159.1716 106.2172,159.3047 105.4605,159.2687 L 102.6587,159.1354 C 100.331,159.0247 100.8462,155.9145 100.964,153.4384 L 99.5631,153.3718 L 99.79,154.5058 L 99.75,155.3464 L 100.0035,155.9201 L 100.2436,156.7739 L 100.4439,158.4684 L 100.7107,158.7619 L 100.951,159.6157 L 101.5113,159.6424 L 101.4846,160.2028 L 101.7248,161.0567 L 101.965,161.9105 L 102.2053,162.7644 L 102.4587,163.3381 L 102.6989,164.192 L 102.9525,164.7657 L 103.1927,165.6195 L 103.4461,166.1933 L 103.6864,167.0471 L 103.9399,167.6208 L 104.1801,168.4747 L 104.4337,169.0484 L 104.6738,169.9023 L 104.9273,170.476 L 105.1675,171.3299 L 105.4211,171.9035 L 105.6612,172.7574 L 105.9148,173.3311 L 106.155,174.185 L 106.4085,174.7587 L 106.6621,175.3324 L 106.9155,175.9061 L 107.1557,176.76 L 107.3959,177.6138 L 107.6495,178.1876 L 107.8896,179.0414 L 108.1432,179.6151 L 108.3567,181.0293 L 108.9171,181.056 L 108.8638,182.1767 L 109.1173,182.7504 L 109.3575,183.6043 L 109.5844,184.7383 L 109.8246,185.5923 L 110.0914,185.8857 L 110.3582,186.1793 L 110.6251,186.4728 L 112.5864,186.5661 L 112.8799,186.2992 L 113.1734,186.0323 L 113.4669,185.7656 L 114.0406,185.512 L 114.3475,184.9649 L 114.641,184.6981 L 114.9345,184.4313 L 115.228,184.1644 L 115.5215,183.8975 L 115.815,183.6307 L 116.1086,183.3639 L 116.6822,183.1103 L 116.9891,182.5633 L 117.2826,182.2965 L 117.5761,182.0296 L 117.8697,181.7627 L 118.1631,181.4958 L 118.4566,181.2291 L 118.7502,180.9622 L 119.0437,180.6953 L 119.3371,180.4284 L 119.6307,180.1616 L 119.9242,179.8948 L 120.2177,179.6279 L 120.5113,179.361 L 120.8047,179.0942 L 121.0982,178.8274 L 121.3918,178.5605 L 121.6853,178.2936 L 121.9788,178.0268 L 122.2723,177.7599 L 122.5658,177.4931 L 122.8593,177.2262 L 123.1529,176.9594 L 123.4463,176.6925 L 123.7399,176.4257 L 124.0334,176.1588 L 124.3269,175.8919 L 124.6204,175.6251 L 124.9139,175.3582 L 125.2074,175.0914 L 125.501,174.8245 L 125.7945,174.5577 L 126.0879,174.2908 L 126.3815,174.024 L 126.675,173.7571 L 126.9685,173.4903 L 127.262,173.2234 L 127.5555,172.9565 L 127.849,172.6897 L 128.1426,172.4229 L 128.4361,172.156 L 128.7296,171.8891 L 129.0231,171.6223 L 129.3166,171.3555 L 129.6101,171.0886 L 129.9036,170.8217 L 130.1971,170.5549 L 130.4906,170.288 L 130.7842,170.0212 L 131.0777,169.7543 L 131.3712,169.4874 L 131.6647,169.2206 L 131.9582,168.9538 L 132.2651,168.4067 L 132.5585,168.1399 L 132.8654,167.5928 L 133.1989,166.4854 L 133.2922,164.5241 L 133.0387,163.9505 L 132.7851,163.3767 L 132.5317,162.8031 L 131.9713,162.7764 L 132.0113,161.9358 L 131.7444,161.6424 L 131.4909,161.0686 L 131.224,160.7751 L 130.9705,160.2015 L 130.717,159.6277 L 130.4634,159.0541 L 130.1966,158.7605 L 129.9431,158.1868 L 129.7029,157.333 L 129.1426,157.3063 L 129.1692,156.746 L 128.9157,156.1723 L 128.6621,155.5985 L 128.3953,155.3051 L 128.1417,154.7313 L 127.8882,154.1577 L 127.6214,153.8642 L 127.6347,153.584 L 127.648,153.3038 L 127.0876,153.2771 L 127.1143,152.7168 L 126.8475,152.4232 L 126.594,151.8495 L 126.3404,151.2759 L 126.1135,150.1418 L 125.8467,149.8483 L 125.5932,149.2746 L 125.3263,148.9811 L 125.0595,148.6876 L 124.8059,148.1138 L 124.5391,147.8204 L 124.2856,147.2467 L 124.0187,146.9531 L 123.7652,146.3795 L 123.5116,145.8057 L 123.2582,145.2321 L 122.9913,144.9386 L 122.7378,144.3648 L 122.4842,143.7912 L 122.2307,143.2175 L 121.9639,142.9239 L 121.7103,142.3503 L 121.4435,142.0567 L 121.1899,141.483 L 120.9365,140.9094 L 120.6829,140.3356 L 120.4294,139.762 L 120.1625,139.4684 L 119.909,138.8947 L 119.6555,138.3211 L 119.3886,138.0275 L 119.402,137.7473 L 119.4153,137.4672 L 118.8549,137.4406 L 118.8815,136.8802 L 118.6281,136.3065 L 118.3612,136.013 L 118.1077,135.4392 L 117.8541,134.8656 L 117.614,134.0117 L 117.0536,133.985 L 117.0802,133.4247 L 116.8267,132.8509 L 116.5732,132.2773 L 116.3064,131.9838 L 116.0528,131.41 L 115.7993,130.8364 L 115.5324,130.5429 L 115.2789,129.9691 L 115.0254,129.3955 L 114.7585,129.1019 L 114.505,128.5283 L 114.2515,127.9546 L 114.0113,127.1007 L 113.7444,126.8072 L 113.4776,126.5137 L 113.224,125.94 L 112.9572,125.6465 L 112.717,124.7926 L 112.4502,124.4991 L 112.1966,123.9254 L 111.9431,123.3517 L 111.6896,122.778 L 111.4361,122.2043 L 111.1959,121.3504 L 110.9157,121.3371 L 110.6488,121.0435 L 110.6888,120.203 L 110.9956,119.656 L 111.2892,119.3891 L 111.3425,118.2684 C 110.8207,118.5829 110.8232,118.8053 110.1951,118.7754 C 109.6025,118.7472 109.8305,118.6575 109.0877,118.4419 C 108.9712,117.8066 108.8381,117.7845 108.8741,117.0277 L 108.9541,115.3466 C 109.0025,114.3287 109.3333,114.3797 109.6078,113.412 L 112.1114,114.0653 L 111.9695,116.8942 L 112.263,116.6273 L 112.5832,115.8001 L 112.89,115.253 L 113.2102,114.4258 L 113.5303,113.5986 L 113.8372,113.0516 L 114.144,112.5045 L 114.4776,111.3971 L 114.7977,110.5699 L 114.8511,109.4492 L 114.304,109.1423 L 110.3814,108.9557 L 110.3548,109.5161 L 109.2474,109.1826 L 108.7163,108.8525 L 108.4868,107.4615 C 108.2736,111.9444 109.467,110.5971 112.8231,110.7568 C 113.1641,110.773 113.636,111.3763 113.6103,111.9175 C 113.5791,112.5734 113.0921,113.0161 112.4363,112.9849 L 111.5957,112.9449 C 110.6224,112.8986 111.1949,112.3642 110.2215,112.3179 L 109.9413,112.3046 C 108.9209,112.256 108.3792,114.137 108.1269,115.0264 L 106.4991,113.8257 L 106.4991,113.8257 z "
   style="fill:#343929" />
   <path
   id="_59265656"
   class="fil19"
   d="M 81.6454,175.827 L 81.9256,175.8404 L 82.2192,175.5736 L 82.5127,175.3067 L 82.566,174.186 C 81.9623,173.1264 82.1531,171.9198 80.4311,171.8379 L 79.8708,171.8112 C 79.1961,171.7791 78.1418,172.7377 78.1097,173.4123 L 78.043,174.8132 L 79.2409,175.8687 L 80.2312,176.0406 C 80.9879,176.0766 81.0101,175.9436 81.6454,175.827 L 81.6454,175.827 z "
   style="fill:#0019d6" />
   <polygon
   id="_59151248"
   class="fil0"
   points="65.9419,175.36 65.9552,175.08 65.675,175.067 65.6617,175.347 65.9419,175.36 "
   style="fill:#fffff7" />
   <path
   id="_58308544"
   class="fil22"
   d="M 106.782,172.81 C 107.449,174.5161 110.3376,185.6159 111.5056,185.6714 C 111.8502,185.6878 116.1379,182.4041 116.4554,181.9755 C 116.1841,181.5255 116.1239,181.1173 115.3747,181.0816 C 114.4013,181.0353 114.9204,181.6216 113.9471,181.5753 L 111.9858,181.482 C 111.0779,181.4388 110.3626,180.1845 110.4113,179.1606 L 110.4646,178.0399 C 110.5077,177.1341 111.5484,176.6873 112.4926,176.7322 L 113.8935,176.7989 C 114.0305,177.4312 113.9189,177.6425 114.694,177.6794 C 115.7304,177.7287 116.4433,176.3259 116.4951,175.2377 C 116.5437,174.2156 116.2755,174.5582 116.3082,173.2632 L 106.782,172.81 L 106.782,172.81 z "
   style="fill:#ef1000" />
   <polygon
   id="_58308736"
   class="fil0"
   points="65.8353,177.602 65.8486,177.322 65.5684,177.308 65.5551,177.589 65.8353,177.602 "
   style="fill:#fffff7" />
   <polygon
   id="_59265848"
   class="fil0"
   points="106.182,179.521 106.195,179.241 105.915,179.228 105.901,179.508 106.182,179.521 "
   style="fill:#fffff7" />
   <path
   id="_59266040"
   class="fil16"
   d="M 124.369,173.855 L 124.1536,173.6367 L 118.5499,173.3701 C 116.6658,173.2805 117.4553,178.3727 115.7883,178.2934 L 111.3054,178.0801 L 111.4854,180.3342 C 112.0296,180.4911 112.263,180.6973 112.5863,180.6684 L 115.3968,180.4696 L 115.4282,179.9611 L 117.5752,180.5595 L 124.369,173.855 L 124.369,173.855 z "
   style="fill:#0010d6" />
   <polygon
   id="_58653264"
   class="fil0"
   points="65.7286,179.843 65.742,179.563 65.4618,179.55 65.4484,179.83 65.7286,179.843 "
   style="fill:#fffff7" />
   <polygon
   id="_59266232"
   class="fil0"
   points="70.2115,180.057 70.2249,179.776 69.9447,179.763 69.9313,180.043 70.2115,180.057 "
   style="fill:#fffff7" />
   <polygon
   id="_58309792"
   class="fil0"
   points="81.4188,180.59 81.4322,180.31 81.152,180.296 81.1387,180.577 81.4188,180.59 "
   style="fill:#fffff7" />
   <path
   id="_59266424"
   class="fil22"
   d="M 84.9673,167.888 L 73.385,166.6184 L 70.8513,166.6082 L 70.678,170.2506 C 71.9968,170.2038 72.0903,169.7562 73.5066,169.8235 L 75.1877,169.9035 C 75.5071,171.3779 75.9467,171.6576 75.8416,173.8661 L 75.8016,174.7066 C 75.75,175.7921 73.8264,176.5784 72.6262,176.5213 C 71.6042,176.4727 71.9707,176.2382 70.6783,176.1478 L 70.4368,176.3283 L 72.2438,178.7462 L 76.1717,179.8799 L 76.5673,183.7717 L 79.8513,177.4109 C 78.7151,176.7365 76.8915,175.4077 76.9756,173.6392 L 77.0023,173.0788 C 77.039,172.3081 79.0258,170.367 79.9374,170.4103 L 81.3384,170.477 C 82.0287,170.5098 82.5173,171.3827 83.4628,171.679 L 84.9673,167.888 L 84.9673,167.888 z "
   style="fill:#ef1000" />
   <polygon
   id="_59266616"
   class="fil0"
   points="70.1049,182.298 70.1182,182.018 69.838,182.005 69.8247,182.285 70.1049,182.298 "
   style="fill:#fffff7" />
  </g>
 </g>
</svg>